<svg width="1363" height="297" viewBox="0 0 1363 297" fill="none" xmlns="http://www.w3.org/2000/svg">
<path d="M0 15C0 6.71573 6.71573 0 15 0H37V297H15C6.71573 297 0 290.284 0 282V15Z" fill="#A00119"/>
<path d="M37 0H1066V297H37V0Z" fill="#F0F0F0"/>
<path d="M115.57 61.623V71.7656C115.172 72.2461 114.557 72.7676 113.725 73.3301C112.893 73.8809 111.82 74.3555 110.508 74.7539C109.195 75.1523 107.607 75.3516 105.744 75.3516C104.092 75.3516 102.586 75.082 101.227 74.543C99.8672 73.9922 98.6953 73.1895 97.7109 72.1348C96.7383 71.0801 95.9883 69.791 95.4609 68.2676C94.9336 66.7324 94.6699 64.9805 94.6699 63.0117V61.4121C94.6699 59.4434 94.9219 57.6914 95.4258 56.1562C95.9414 54.6211 96.6738 53.3262 97.623 52.2715C98.5723 51.2168 99.7031 50.4141 101.016 49.8633C102.328 49.3125 103.787 49.0371 105.393 49.0371C107.619 49.0371 109.447 49.4004 110.877 50.127C112.307 50.8418 113.396 51.8379 114.146 53.1152C114.908 54.3809 115.377 55.834 115.553 57.4746H110.438C110.309 56.6074 110.062 55.8516 109.699 55.207C109.336 54.5625 108.814 54.0586 108.135 53.6953C107.467 53.332 106.6 53.1504 105.533 53.1504C104.654 53.1504 103.869 53.332 103.178 53.6953C102.498 54.0469 101.924 54.5684 101.455 55.2598C100.986 55.9512 100.629 56.8066 100.383 57.8262C100.137 58.8457 100.014 60.0293 100.014 61.377V63.0117C100.014 64.3477 100.143 65.5312 100.4 66.5625C100.658 67.582 101.039 68.4434 101.543 69.1465C102.059 69.8379 102.691 70.3594 103.441 70.7109C104.191 71.0625 105.064 71.2383 106.061 71.2383C106.893 71.2383 107.584 71.168 108.135 71.0273C108.697 70.8867 109.148 70.7168 109.488 70.5176C109.84 70.3066 110.109 70.1074 110.297 69.9199V65.3848H105.48V61.623H115.57ZM124.447 48V75H119.385V48H124.447ZM123.727 64.8223H122.338C122.35 63.498 122.525 62.2793 122.865 61.166C123.205 60.041 123.691 59.0684 124.324 58.248C124.957 57.416 125.713 56.7715 126.592 56.3145C127.482 55.8574 128.467 55.6289 129.545 55.6289C130.482 55.6289 131.332 55.7637 132.094 56.0332C132.867 56.291 133.529 56.7129 134.08 57.2988C134.643 57.873 135.076 58.6289 135.381 59.5664C135.686 60.5039 135.838 61.6406 135.838 62.9766V75H130.74V62.9414C130.74 62.0977 130.617 61.4355 130.371 60.9551C130.137 60.4629 129.791 60.1172 129.334 59.918C128.889 59.707 128.338 59.6016 127.682 59.6016C126.955 59.6016 126.334 59.7363 125.818 60.0059C125.314 60.2754 124.91 60.6504 124.605 61.1309C124.301 61.5996 124.078 62.1504 123.938 62.7832C123.797 63.416 123.727 64.0957 123.727 64.8223ZM145.031 55.9805V75H139.951V55.9805H145.031ZM139.635 51.0234C139.635 50.2852 139.893 49.6758 140.408 49.1953C140.924 48.7148 141.615 48.4746 142.482 48.4746C143.338 48.4746 144.023 48.7148 144.539 49.1953C145.066 49.6758 145.33 50.2852 145.33 51.0234C145.33 51.7617 145.066 52.3711 144.539 52.8516C144.023 53.332 143.338 53.5723 142.482 53.5723C141.615 53.5723 140.924 53.332 140.408 52.8516C139.893 52.3711 139.635 51.7617 139.635 51.0234ZM154.646 70.0781L158.602 55.9805H161.818L160.781 61.5176L156.826 75H154.137L154.646 70.0781ZM152.643 55.9805L155.473 70.0605L155.736 75H152.572L147.756 55.9805H152.643ZM165.439 69.832L168.199 55.9805H173.104L168.287 75H165.141L165.439 69.832ZM162.258 55.9805L166.195 69.9727L166.74 75H164.033L160.078 61.5352L159.076 55.9805H162.258ZM185.918 70.7109V62.2383C185.918 61.6289 185.818 61.1074 185.619 60.6738C185.42 60.2285 185.109 59.8828 184.688 59.6367C184.277 59.3906 183.744 59.2676 183.088 59.2676C182.525 59.2676 182.039 59.3672 181.629 59.5664C181.219 59.7539 180.902 60.0293 180.68 60.3926C180.457 60.7441 180.346 61.1602 180.346 61.6406H175.283C175.283 60.832 175.471 60.0645 175.846 59.3379C176.221 58.6113 176.766 57.9727 177.48 57.4219C178.195 56.8594 179.045 56.4199 180.029 56.1035C181.025 55.7871 182.139 55.6289 183.369 55.6289C184.846 55.6289 186.158 55.875 187.307 56.3672C188.455 56.8594 189.357 57.5977 190.014 58.582C190.682 59.5664 191.016 60.7969 191.016 62.2734V70.4121C191.016 71.4551 191.08 72.3105 191.209 72.9785C191.338 73.6348 191.525 74.209 191.771 74.7012V75H186.656C186.41 74.4844 186.223 73.8398 186.094 73.0664C185.977 72.2812 185.918 71.4961 185.918 70.7109ZM186.586 63.416L186.621 66.2812H183.791C183.123 66.2812 182.543 66.3574 182.051 66.5098C181.559 66.6621 181.154 66.8789 180.838 67.1602C180.521 67.4297 180.287 67.7461 180.135 68.1094C179.994 68.4727 179.924 68.8711 179.924 69.3047C179.924 69.7383 180.023 70.1309 180.223 70.4824C180.422 70.8223 180.709 71.0918 181.084 71.291C181.459 71.4785 181.898 71.5723 182.402 71.5723C183.164 71.5723 183.826 71.4199 184.389 71.1152C184.951 70.8105 185.385 70.4355 185.689 69.9902C186.006 69.5449 186.17 69.123 186.182 68.7246L187.518 70.8691C187.33 71.3496 187.072 71.8477 186.744 72.3633C186.428 72.8789 186.023 73.3652 185.531 73.8223C185.039 74.2676 184.447 74.6367 183.756 74.9297C183.064 75.2109 182.244 75.3516 181.295 75.3516C180.088 75.3516 178.992 75.1113 178.008 74.6309C177.035 74.1387 176.262 73.4648 175.688 72.6094C175.125 71.7422 174.844 70.7578 174.844 69.6562C174.844 68.6602 175.031 67.7754 175.406 67.002C175.781 66.2285 176.332 65.5781 177.059 65.0508C177.797 64.5117 178.717 64.1074 179.818 63.8379C180.92 63.5566 182.197 63.416 183.65 63.416H186.586ZM221.373 70.8867V75H207.75V70.8867H221.373ZM209.473 49.4062V75H204.199V49.4062H209.473ZM219.598 59.8301V63.8379H207.75V59.8301H219.598ZM221.355 49.4062V53.5371H207.75V49.4062H221.355ZM229.477 48V75H224.396V48H229.477ZM250.799 75H245.227L245.262 70.8867H250.799C252.182 70.8867 253.348 70.5762 254.297 69.9551C255.246 69.3223 255.961 68.4023 256.441 67.1953C256.934 65.9883 257.18 64.5293 257.18 62.8184V61.5703C257.18 60.2578 257.039 59.1035 256.758 58.1074C256.488 57.1113 256.084 56.2734 255.545 55.5938C255.006 54.9141 254.344 54.4043 253.559 54.0645C252.773 53.7129 251.871 53.5371 250.852 53.5371H245.121V49.4062H250.852C252.562 49.4062 254.127 49.6992 255.545 50.2852C256.975 50.8594 258.211 51.6855 259.254 52.7637C260.297 53.8418 261.1 55.1309 261.662 56.6309C262.236 58.1191 262.523 59.7773 262.523 61.6055V62.8184C262.523 64.6348 262.236 66.293 261.662 67.793C261.1 69.293 260.297 70.582 259.254 71.6602C258.223 72.7266 256.986 73.5527 255.545 74.1387C254.115 74.7129 252.533 75 250.799 75ZM248.215 49.4062V75H242.941V49.4062H248.215ZM276.305 70.7109V62.2383C276.305 61.6289 276.205 61.1074 276.006 60.6738C275.807 60.2285 275.496 59.8828 275.074 59.6367C274.664 59.3906 274.131 59.2676 273.475 59.2676C272.912 59.2676 272.426 59.3672 272.016 59.5664C271.605 59.7539 271.289 60.0293 271.066 60.3926C270.844 60.7441 270.732 61.1602 270.732 61.6406H265.67C265.67 60.832 265.857 60.0645 266.232 59.3379C266.607 58.6113 267.152 57.9727 267.867 57.4219C268.582 56.8594 269.432 56.4199 270.416 56.1035C271.412 55.7871 272.525 55.6289 273.756 55.6289C275.232 55.6289 276.545 55.875 277.693 56.3672C278.842 56.8594 279.744 57.5977 280.4 58.582C281.068 59.5664 281.402 60.7969 281.402 62.2734V70.4121C281.402 71.4551 281.467 72.3105 281.596 72.9785C281.725 73.6348 281.912 74.209 282.158 74.7012V75H277.043C276.797 74.4844 276.609 73.8398 276.48 73.0664C276.363 72.2812 276.305 71.4961 276.305 70.7109ZM276.973 63.416L277.008 66.2812H274.178C273.51 66.2812 272.93 66.3574 272.438 66.5098C271.945 66.6621 271.541 66.8789 271.225 67.1602C270.908 67.4297 270.674 67.7461 270.521 68.1094C270.381 68.4727 270.311 68.8711 270.311 69.3047C270.311 69.7383 270.41 70.1309 270.609 70.4824C270.809 70.8223 271.096 71.0918 271.471 71.291C271.846 71.4785 272.285 71.5723 272.789 71.5723C273.551 71.5723 274.213 71.4199 274.775 71.1152C275.338 70.8105 275.771 70.4355 276.076 69.9902C276.393 69.5449 276.557 69.123 276.568 68.7246L277.904 70.8691C277.717 71.3496 277.459 71.8477 277.131 72.3633C276.814 72.8789 276.41 73.3652 275.918 73.8223C275.426 74.2676 274.834 74.6367 274.143 74.9297C273.451 75.2109 272.631 75.3516 271.682 75.3516C270.475 75.3516 269.379 75.1113 268.395 74.6309C267.422 74.1387 266.648 73.4648 266.074 72.6094C265.512 71.7422 265.23 70.7578 265.23 69.6562C265.23 68.6602 265.418 67.7754 265.793 67.002C266.168 66.2285 266.719 65.5781 267.445 65.0508C268.184 64.5117 269.104 64.1074 270.205 63.8379C271.307 63.5566 272.584 63.416 274.037 63.416H276.973ZM293.162 71.3965C293.783 71.3965 294.334 71.2793 294.814 71.0449C295.295 70.7988 295.67 70.459 295.939 70.0254C296.221 69.5801 296.367 69.0586 296.379 68.4609H301.143C301.131 69.7969 300.773 70.9863 300.07 72.0293C299.367 73.0605 298.424 73.875 297.24 74.4727C296.057 75.0586 294.732 75.3516 293.268 75.3516C291.791 75.3516 290.502 75.1055 289.4 74.6133C288.311 74.1211 287.402 73.4414 286.676 72.5742C285.949 71.6953 285.404 70.6758 285.041 69.5156C284.678 68.3438 284.496 67.0898 284.496 65.7539V65.2441C284.496 63.8965 284.678 62.6426 285.041 61.4824C285.404 60.3105 285.949 59.291 286.676 58.4238C287.402 57.5449 288.311 56.8594 289.4 56.3672C290.49 55.875 291.768 55.6289 293.232 55.6289C294.791 55.6289 296.156 55.9277 297.328 56.5254C298.512 57.123 299.438 57.9785 300.105 59.0918C300.785 60.1934 301.131 61.5 301.143 63.0117H296.379C296.367 62.3789 296.232 61.8047 295.975 61.2891C295.729 60.7734 295.365 60.3633 294.885 60.0586C294.416 59.7422 293.836 59.584 293.145 59.584C292.406 59.584 291.803 59.7422 291.334 60.0586C290.865 60.3633 290.502 60.7852 290.244 61.3242C289.986 61.8516 289.805 62.4551 289.699 63.1348C289.605 63.8027 289.559 64.5059 289.559 65.2441V65.7539C289.559 66.4922 289.605 67.2012 289.699 67.8809C289.793 68.5605 289.969 69.1641 290.227 69.6914C290.496 70.2188 290.865 70.6348 291.334 70.9395C291.803 71.2441 292.412 71.3965 293.162 71.3965ZM311.936 71.3965C312.557 71.3965 313.107 71.2793 313.588 71.0449C314.068 70.7988 314.443 70.459 314.713 70.0254C314.994 69.5801 315.141 69.0586 315.152 68.4609H319.916C319.904 69.7969 319.547 70.9863 318.844 72.0293C318.141 73.0605 317.197 73.875 316.014 74.4727C314.83 75.0586 313.506 75.3516 312.041 75.3516C310.564 75.3516 309.275 75.1055 308.174 74.6133C307.084 74.1211 306.176 73.4414 305.449 72.5742C304.723 71.6953 304.178 70.6758 303.814 69.5156C303.451 68.3438 303.27 67.0898 303.27 65.7539V65.2441C303.27 63.8965 303.451 62.6426 303.814 61.4824C304.178 60.3105 304.723 59.291 305.449 58.4238C306.176 57.5449 307.084 56.8594 308.174 56.3672C309.264 55.875 310.541 55.6289 312.006 55.6289C313.564 55.6289 314.93 55.9277 316.102 56.5254C317.285 57.123 318.211 57.9785 318.879 59.0918C319.559 60.1934 319.904 61.5 319.916 63.0117H315.152C315.141 62.3789 315.006 61.8047 314.748 61.2891C314.502 60.7734 314.139 60.3633 313.658 60.0586C313.189 59.7422 312.609 59.584 311.918 59.584C311.18 59.584 310.576 59.7422 310.107 60.0586C309.639 60.3633 309.275 60.7852 309.018 61.3242C308.76 61.8516 308.578 62.4551 308.473 63.1348C308.379 63.8027 308.332 64.5059 308.332 65.2441V65.7539C308.332 66.4922 308.379 67.2012 308.473 67.8809C308.566 68.5605 308.742 69.1641 309 69.6914C309.27 70.2188 309.639 70.6348 310.107 70.9395C310.576 71.2441 311.186 71.3965 311.936 71.3965ZM333.117 70.7109V62.2383C333.117 61.6289 333.018 61.1074 332.818 60.6738C332.619 60.2285 332.309 59.8828 331.887 59.6367C331.477 59.3906 330.943 59.2676 330.287 59.2676C329.725 59.2676 329.238 59.3672 328.828 59.5664C328.418 59.7539 328.102 60.0293 327.879 60.3926C327.656 60.7441 327.545 61.1602 327.545 61.6406H322.482C322.482 60.832 322.67 60.0645 323.045 59.3379C323.42 58.6113 323.965 57.9727 324.68 57.4219C325.395 56.8594 326.244 56.4199 327.229 56.1035C328.225 55.7871 329.338 55.6289 330.568 55.6289C332.045 55.6289 333.357 55.875 334.506 56.3672C335.654 56.8594 336.557 57.5977 337.213 58.582C337.881 59.5664 338.215 60.7969 338.215 62.2734V70.4121C338.215 71.4551 338.279 72.3105 338.408 72.9785C338.537 73.6348 338.725 74.209 338.971 74.7012V75H333.855C333.609 74.4844 333.422 73.8398 333.293 73.0664C333.176 72.2812 333.117 71.4961 333.117 70.7109ZM333.785 63.416L333.82 66.2812H330.99C330.322 66.2812 329.742 66.3574 329.25 66.5098C328.758 66.6621 328.354 66.8789 328.037 67.1602C327.721 67.4297 327.486 67.7461 327.334 68.1094C327.193 68.4727 327.123 68.8711 327.123 69.3047C327.123 69.7383 327.223 70.1309 327.422 70.4824C327.621 70.8223 327.908 71.0918 328.283 71.291C328.658 71.4785 329.098 71.5723 329.602 71.5723C330.363 71.5723 331.025 71.4199 331.588 71.1152C332.15 70.8105 332.584 70.4355 332.889 69.9902C333.205 69.5449 333.369 69.123 333.381 68.7246L334.717 70.8691C334.529 71.3496 334.271 71.8477 333.943 72.3633C333.627 72.8789 333.223 73.3652 332.73 73.8223C332.238 74.2676 331.646 74.6367 330.955 74.9297C330.264 75.2109 329.443 75.3516 328.494 75.3516C327.287 75.3516 326.191 75.1113 325.207 74.6309C324.234 74.1387 323.461 73.4648 322.887 72.6094C322.324 71.7422 322.043 70.7578 322.043 69.6562C322.043 68.6602 322.23 67.7754 322.605 67.002C322.98 66.2285 323.531 65.5781 324.258 65.0508C324.996 64.5117 325.916 64.1074 327.018 63.8379C328.119 63.5566 329.396 63.416 330.85 63.416H333.785ZM349.975 71.3965C350.596 71.3965 351.146 71.2793 351.627 71.0449C352.107 70.7988 352.482 70.459 352.752 70.0254C353.033 69.5801 353.18 69.0586 353.191 68.4609H357.955C357.943 69.7969 357.586 70.9863 356.883 72.0293C356.18 73.0605 355.236 73.875 354.053 74.4727C352.869 75.0586 351.545 75.3516 350.08 75.3516C348.604 75.3516 347.314 75.1055 346.213 74.6133C345.123 74.1211 344.215 73.4414 343.488 72.5742C342.762 71.6953 342.217 70.6758 341.854 69.5156C341.49 68.3438 341.309 67.0898 341.309 65.7539V65.2441C341.309 63.8965 341.49 62.6426 341.854 61.4824C342.217 60.3105 342.762 59.291 343.488 58.4238C344.215 57.5449 345.123 56.8594 346.213 56.3672C347.303 55.875 348.58 55.6289 350.045 55.6289C351.604 55.6289 352.969 55.9277 354.141 56.5254C355.324 57.123 356.25 57.9785 356.918 59.0918C357.598 60.1934 357.943 61.5 357.955 63.0117H353.191C353.18 62.3789 353.045 61.8047 352.787 61.2891C352.541 60.7734 352.178 60.3633 351.697 60.0586C351.229 59.7422 350.648 59.584 349.957 59.584C349.219 59.584 348.615 59.7422 348.146 60.0586C347.678 60.3633 347.314 60.7852 347.057 61.3242C346.799 61.8516 346.617 62.4551 346.512 63.1348C346.418 63.8027 346.371 64.5059 346.371 65.2441V65.7539C346.371 66.4922 346.418 67.2012 346.512 67.8809C346.605 68.5605 346.781 69.1641 347.039 69.6914C347.309 70.2188 347.678 70.6348 348.146 70.9395C348.615 71.2441 349.225 71.3965 349.975 71.3965ZM365.83 48V75H360.768V48H365.83ZM365.109 64.8223H363.721C363.732 63.498 363.908 62.2793 364.248 61.166C364.588 60.041 365.074 59.0684 365.707 58.248C366.34 57.416 367.096 56.7715 367.975 56.3145C368.865 55.8574 369.85 55.6289 370.928 55.6289C371.865 55.6289 372.715 55.7637 373.477 56.0332C374.25 56.291 374.912 56.7129 375.463 57.2988C376.025 57.873 376.459 58.6289 376.764 59.5664C377.068 60.5039 377.221 61.6406 377.221 62.9766V75H372.123V62.9414C372.123 62.0977 372 61.4355 371.754 60.9551C371.52 60.4629 371.174 60.1172 370.717 59.918C370.271 59.707 369.721 59.6016 369.064 59.6016C368.338 59.6016 367.717 59.7363 367.201 60.0059C366.697 60.2754 366.293 60.6504 365.988 61.1309C365.684 61.5996 365.461 62.1504 365.32 62.7832C365.18 63.416 365.109 64.0957 365.109 64.8223ZM389.824 75.3516C388.348 75.3516 387.023 75.1172 385.852 74.6484C384.68 74.168 383.684 73.5059 382.863 72.6621C382.055 71.8184 381.434 70.8398 381 69.7266C380.566 68.6016 380.35 67.4062 380.35 66.1406V65.4375C380.35 63.9961 380.555 62.6777 380.965 61.4824C381.375 60.2871 381.961 59.25 382.723 58.3711C383.496 57.4922 384.434 56.8184 385.535 56.3496C386.637 55.8691 387.879 55.6289 389.262 55.6289C390.609 55.6289 391.805 55.8516 392.848 56.2969C393.891 56.7422 394.764 57.375 395.467 58.1953C396.182 59.0156 396.721 60 397.084 61.1484C397.447 62.2852 397.629 63.5508 397.629 64.9453V67.0547H382.512V63.6797H392.654V63.293C392.654 62.5898 392.525 61.9629 392.268 61.4121C392.021 60.8496 391.646 60.4043 391.143 60.0762C390.639 59.748 389.994 59.584 389.209 59.584C388.541 59.584 387.967 59.7305 387.486 60.0234C387.006 60.3164 386.613 60.7266 386.309 61.2539C386.016 61.7812 385.793 62.4023 385.641 63.1172C385.5 63.8203 385.43 64.5938 385.43 65.4375V66.1406C385.43 66.9023 385.535 67.6055 385.746 68.25C385.969 68.8945 386.279 69.4512 386.678 69.9199C387.088 70.3887 387.58 70.752 388.154 71.0098C388.74 71.2676 389.402 71.3965 390.141 71.3965C391.055 71.3965 391.904 71.2207 392.689 70.8691C393.486 70.5059 394.172 69.9609 394.746 69.2344L397.207 71.9062C396.809 72.4805 396.264 73.0312 395.572 73.5586C394.893 74.0859 394.072 74.5195 393.111 74.8594C392.15 75.1875 391.055 75.3516 389.824 75.3516Z" fill="#888888"/>
<path d="M118.676 126.52H128.246C128.118 129.29 127.371 131.733 126.004 133.848C124.637 135.962 122.741 137.612 120.316 138.797C117.91 139.964 115.066 140.547 111.785 140.547C109.124 140.547 106.745 140.1 104.648 139.207C102.57 138.314 100.802 137.029 99.3438 135.352C97.9036 133.674 96.8008 131.642 96.0352 129.254C95.2878 126.866 94.9141 124.177 94.9141 121.188V119.027C94.9141 116.038 95.306 113.349 96.0898 110.961C96.8919 108.555 98.0221 106.513 99.4805 104.836C100.957 103.141 102.725 101.846 104.785 100.953C106.845 100.06 109.133 99.6133 111.648 99.6133C115.112 99.6133 118.038 100.233 120.426 101.473C122.814 102.712 124.664 104.417 125.977 106.586C127.289 108.737 128.064 111.189 128.301 113.941H118.73C118.694 112.447 118.439 111.198 117.965 110.195C117.491 109.174 116.743 108.409 115.723 107.898C114.702 107.388 113.344 107.133 111.648 107.133C110.464 107.133 109.434 107.352 108.559 107.789C107.684 108.227 106.954 108.919 106.371 109.867C105.788 110.815 105.35 112.046 105.059 113.559C104.785 115.053 104.648 116.858 104.648 118.973V121.188C104.648 123.302 104.776 125.107 105.031 126.602C105.286 128.096 105.697 129.318 106.262 130.266C106.827 131.214 107.556 131.915 108.449 132.371C109.361 132.809 110.473 133.027 111.785 133.027C113.243 133.027 114.474 132.799 115.477 132.344C116.479 131.87 117.254 131.159 117.801 130.211C118.348 129.245 118.639 128.014 118.676 126.52ZM147.715 132.562V120.367C147.715 119.529 147.596 118.809 147.359 118.207C147.122 117.605 146.749 117.141 146.238 116.812C145.728 116.466 145.044 116.293 144.188 116.293C143.495 116.293 142.902 116.411 142.41 116.648C141.918 116.885 141.544 117.241 141.289 117.715C141.034 118.189 140.906 118.79 140.906 119.52H131.691C131.691 118.152 131.992 116.885 132.594 115.719C133.214 114.534 134.089 113.504 135.219 112.629C136.367 111.754 137.734 111.079 139.32 110.605C140.924 110.113 142.711 109.867 144.68 109.867C147.031 109.867 149.128 110.259 150.969 111.043C152.828 111.827 154.296 113.003 155.371 114.57C156.447 116.12 156.984 118.07 156.984 120.422V132.535C156.984 134.467 157.094 135.935 157.312 136.938C157.531 137.922 157.841 138.788 158.242 139.535V140H149C148.562 139.089 148.234 137.977 148.016 136.664C147.815 135.333 147.715 133.966 147.715 132.562ZM148.836 121.926L148.891 126.848H144.816C143.96 126.848 143.23 126.966 142.629 127.203C142.046 127.44 141.572 127.768 141.207 128.188C140.861 128.589 140.605 129.044 140.441 129.555C140.296 130.065 140.223 130.603 140.223 131.168C140.223 131.715 140.35 132.207 140.605 132.645C140.879 133.064 141.243 133.392 141.699 133.629C142.155 133.866 142.665 133.984 143.23 133.984C144.251 133.984 145.117 133.793 145.828 133.41C146.557 133.009 147.113 132.526 147.496 131.961C147.879 131.396 148.07 130.867 148.07 130.375L150.094 134.148C149.729 134.878 149.31 135.616 148.836 136.363C148.38 137.111 147.806 137.803 147.113 138.441C146.439 139.061 145.609 139.572 144.625 139.973C143.641 140.355 142.447 140.547 141.043 140.547C139.22 140.547 137.543 140.173 136.012 139.426C134.499 138.678 133.286 137.639 132.375 136.309C131.464 134.96 131.008 133.41 131.008 131.66C131.008 130.129 131.281 128.762 131.828 127.559C132.393 126.355 133.241 125.335 134.371 124.496C135.501 123.658 136.941 123.02 138.691 122.582C140.441 122.145 142.501 121.926 144.871 121.926H148.836ZM179.105 133.219V98H188.375V140H180.062L179.105 133.219ZM160.949 125.562V124.988C160.949 122.746 161.195 120.704 161.688 118.863C162.18 117.004 162.909 115.409 163.875 114.078C164.841 112.729 166.044 111.69 167.484 110.961C168.924 110.232 170.583 109.867 172.461 109.867C174.138 109.867 175.605 110.259 176.863 111.043C178.121 111.809 179.197 112.884 180.09 114.27C180.983 115.655 181.712 117.277 182.277 119.137C182.842 120.978 183.271 122.965 183.562 125.098V125.781C183.271 127.786 182.842 129.682 182.277 131.469C181.712 133.237 180.983 134.805 180.09 136.172C179.197 137.539 178.112 138.615 176.836 139.398C175.578 140.164 174.102 140.547 172.406 140.547C170.529 140.547 168.87 140.173 167.43 139.426C166.008 138.678 164.814 137.63 163.848 136.281C162.9 134.932 162.18 133.346 161.688 131.523C161.195 129.701 160.949 127.714 160.949 125.562ZM170.164 124.988V125.562C170.164 126.674 170.237 127.704 170.383 128.652C170.529 129.6 170.775 130.439 171.121 131.168C171.486 131.879 171.96 132.435 172.543 132.836C173.145 133.237 173.883 133.438 174.758 133.438C175.943 133.438 176.918 133.155 177.684 132.59C178.467 132.025 179.042 131.223 179.406 130.184C179.789 129.145 179.953 127.923 179.898 126.52V124.359C179.935 123.156 179.853 122.099 179.652 121.188C179.452 120.258 179.133 119.483 178.695 118.863C178.276 118.243 177.738 117.779 177.082 117.469C176.444 117.141 175.688 116.977 174.812 116.977C173.956 116.977 173.227 117.177 172.625 117.578C172.042 117.979 171.568 118.544 171.203 119.273C170.839 119.984 170.574 120.832 170.41 121.816C170.246 122.783 170.164 123.84 170.164 124.988ZM207.926 140.547C205.52 140.547 203.368 140.173 201.473 139.426C199.577 138.66 197.973 137.612 196.66 136.281C195.366 134.951 194.372 133.419 193.68 131.688C193.005 129.956 192.668 128.124 192.668 126.191V125.152C192.668 122.983 192.969 120.978 193.57 119.137C194.172 117.277 195.065 115.655 196.25 114.27C197.435 112.884 198.921 111.809 200.707 111.043C202.493 110.259 204.572 109.867 206.941 109.867C209.038 109.867 210.915 110.204 212.574 110.879C214.233 111.553 215.637 112.52 216.785 113.777C217.952 115.035 218.836 116.557 219.438 118.344C220.057 120.13 220.367 122.135 220.367 124.359V128.105H196.195V122.336H211.371V121.625C211.389 120.641 211.216 119.802 210.852 119.109C210.505 118.417 209.995 117.888 209.32 117.523C208.646 117.159 207.826 116.977 206.859 116.977C205.857 116.977 205.027 117.195 204.371 117.633C203.733 118.07 203.232 118.672 202.867 119.438C202.521 120.185 202.275 121.051 202.129 122.035C201.983 123.02 201.91 124.059 201.91 125.152V126.191C201.91 127.285 202.056 128.279 202.348 129.172C202.658 130.065 203.095 130.831 203.66 131.469C204.243 132.089 204.936 132.572 205.738 132.918C206.559 133.264 207.488 133.438 208.527 133.438C209.785 133.438 211.025 133.201 212.246 132.727C213.467 132.253 214.516 131.469 215.391 130.375L219.574 135.352C218.973 136.208 218.116 137.038 217.004 137.84C215.91 138.642 214.598 139.298 213.066 139.809C211.535 140.301 209.822 140.547 207.926 140.547ZM233.164 116.73V140H223.949V110.414H232.59L233.164 116.73ZM232.07 124.195L229.91 124.25C229.91 121.99 230.184 119.975 230.73 118.207C231.277 116.421 232.052 114.908 233.055 113.668C234.057 112.428 235.251 111.49 236.637 110.852C238.04 110.195 239.599 109.867 241.312 109.867C242.68 109.867 243.928 110.068 245.059 110.469C246.207 110.87 247.191 111.517 248.012 112.41C248.85 113.303 249.488 114.488 249.926 115.965C250.382 117.423 250.609 119.228 250.609 121.379V140H241.34V121.352C241.34 120.167 241.176 119.264 240.848 118.645C240.52 118.007 240.046 117.569 239.426 117.332C238.806 117.095 238.049 116.977 237.156 116.977C236.208 116.977 235.406 117.159 234.75 117.523C234.094 117.888 233.565 118.398 233.164 119.055C232.781 119.693 232.499 120.449 232.316 121.324C232.152 122.199 232.07 123.156 232.07 124.195ZM268.219 133.438C269.076 133.438 269.805 133.283 270.406 132.973C271.026 132.645 271.491 132.189 271.801 131.605C272.129 131.004 272.284 130.284 272.266 129.445H280.934C280.952 131.669 280.405 133.62 279.293 135.297C278.199 136.956 276.704 138.25 274.809 139.18C272.931 140.091 270.807 140.547 268.438 140.547C266.122 140.547 264.099 140.173 262.367 139.426C260.635 138.66 259.186 137.603 258.02 136.254C256.871 134.887 256.005 133.292 255.422 131.469C254.857 129.646 254.574 127.668 254.574 125.535V124.906C254.574 122.773 254.857 120.796 255.422 118.973C256.005 117.132 256.871 115.536 258.02 114.188C259.186 112.82 260.626 111.763 262.34 111.016C264.072 110.25 266.086 109.867 268.383 109.867C270.844 109.867 273.013 110.332 274.891 111.262C276.786 112.191 278.272 113.54 279.348 115.309C280.423 117.077 280.952 119.219 280.934 121.734H272.266C272.284 120.841 272.147 120.039 271.855 119.328C271.564 118.617 271.108 118.052 270.488 117.633C269.887 117.195 269.112 116.977 268.164 116.977C267.216 116.977 266.451 117.186 265.867 117.605C265.284 118.025 264.837 118.608 264.527 119.355C264.236 120.085 264.035 120.923 263.926 121.871C263.835 122.819 263.789 123.831 263.789 124.906V125.535C263.789 126.629 263.835 127.659 263.926 128.625C264.035 129.573 264.245 130.411 264.555 131.141C264.865 131.852 265.311 132.417 265.895 132.836C266.478 133.237 267.253 133.438 268.219 133.438ZM299.199 140.547C296.793 140.547 294.642 140.173 292.746 139.426C290.85 138.66 289.246 137.612 287.934 136.281C286.639 134.951 285.646 133.419 284.953 131.688C284.279 129.956 283.941 128.124 283.941 126.191V125.152C283.941 122.983 284.242 120.978 284.844 119.137C285.445 117.277 286.339 115.655 287.523 114.27C288.708 112.884 290.194 111.809 291.98 111.043C293.767 110.259 295.845 109.867 298.215 109.867C300.311 109.867 302.189 110.204 303.848 110.879C305.507 111.553 306.91 112.52 308.059 113.777C309.225 115.035 310.109 116.557 310.711 118.344C311.331 120.13 311.641 122.135 311.641 124.359V128.105H287.469V122.336H302.645V121.625C302.663 120.641 302.49 119.802 302.125 119.109C301.779 118.417 301.268 117.888 300.594 117.523C299.919 117.159 299.099 116.977 298.133 116.977C297.13 116.977 296.301 117.195 295.645 117.633C295.007 118.07 294.505 118.672 294.141 119.438C293.794 120.185 293.548 121.051 293.402 122.035C293.257 123.02 293.184 124.059 293.184 125.152V126.191C293.184 127.285 293.329 128.279 293.621 129.172C293.931 130.065 294.368 130.831 294.934 131.469C295.517 132.089 296.21 132.572 297.012 132.918C297.832 133.264 298.762 133.438 299.801 133.438C301.059 133.438 302.298 133.201 303.52 132.727C304.741 132.253 305.789 131.469 306.664 130.375L310.848 135.352C310.246 136.208 309.389 137.038 308.277 137.84C307.184 138.642 305.871 139.298 304.34 139.809C302.809 140.301 301.095 140.547 299.199 140.547Z" fill="black"/>
<rect x="93" y="178" width="917" height="77" rx="10" fill="#D3D3D3"/>
<rect x="111" y="196" width="148" height="41" rx="3" fill="#424242"/>
<rect x="111" y="196" width="148" height="41" rx="3" stroke="#424242" stroke-width="4"/>
<path d="M134.234 210.203H139.271C140.255 210.203 141.11 210.35 141.837 210.643C142.563 210.936 143.123 211.369 143.516 211.943C143.914 212.518 144.113 213.227 144.113 214.07C144.113 214.803 143.999 215.415 143.771 215.907C143.542 216.399 143.223 216.807 142.812 217.129C142.408 217.445 141.937 217.706 141.397 217.911L140.387 218.482H136.159L136.142 216.101H139.271C139.663 216.101 139.988 216.03 140.246 215.89C140.504 215.749 140.697 215.55 140.826 215.292C140.961 215.028 141.028 214.715 141.028 214.352C141.028 213.982 140.961 213.666 140.826 213.402C140.691 213.139 140.492 212.937 140.229 212.796C139.971 212.655 139.651 212.585 139.271 212.585H137.319V223H134.234V210.203ZM141.239 223L138.409 217.34L141.679 217.322L144.544 222.868V223H141.239ZM150.441 223.176C149.668 223.176 148.977 223.056 148.367 222.815C147.758 222.569 147.242 222.232 146.82 221.805C146.404 221.377 146.085 220.885 145.862 220.328C145.646 219.771 145.537 219.183 145.537 218.562V218.228C145.537 217.53 145.634 216.886 145.827 216.294C146.021 215.696 146.308 215.175 146.688 214.729C147.069 214.284 147.547 213.938 148.121 213.692C148.695 213.44 149.363 213.314 150.125 213.314C150.799 213.314 151.402 213.423 151.936 213.64C152.469 213.856 152.92 214.167 153.289 214.571C153.664 214.976 153.948 215.465 154.142 216.039C154.341 216.613 154.44 217.258 154.44 217.973V219.177H146.671V217.322H151.549V217.094C151.555 216.777 151.499 216.508 151.382 216.285C151.271 216.062 151.106 215.893 150.89 215.775C150.673 215.658 150.409 215.6 150.099 215.6C149.776 215.6 149.51 215.67 149.299 215.811C149.094 215.951 148.933 216.145 148.815 216.391C148.704 216.631 148.625 216.909 148.578 217.226C148.531 217.542 148.508 217.876 148.508 218.228V218.562C148.508 218.913 148.555 219.232 148.648 219.52C148.748 219.807 148.889 220.053 149.07 220.258C149.258 220.457 149.48 220.612 149.738 220.724C150.002 220.835 150.301 220.891 150.635 220.891C151.039 220.891 151.438 220.814 151.83 220.662C152.223 220.51 152.56 220.258 152.841 219.906L154.186 221.506C153.992 221.781 153.717 222.048 153.359 222.306C153.008 222.563 152.586 222.774 152.094 222.938C151.602 223.097 151.051 223.176 150.441 223.176ZM160.584 220.609V216.689C160.584 216.42 160.546 216.188 160.47 215.995C160.394 215.802 160.273 215.652 160.109 215.547C159.945 215.436 159.726 215.38 159.45 215.38C159.228 215.38 159.037 215.418 158.879 215.494C158.721 215.57 158.601 215.685 158.519 215.837C158.437 215.989 158.396 216.183 158.396 216.417H155.434C155.434 215.978 155.53 215.57 155.724 215.195C155.923 214.814 156.204 214.483 156.567 214.202C156.937 213.921 157.376 213.704 157.886 213.552C158.401 213.394 158.976 213.314 159.608 213.314C160.364 213.314 161.038 213.44 161.63 213.692C162.228 213.944 162.699 214.322 163.045 214.826C163.391 215.324 163.563 215.951 163.563 216.707V220.601C163.563 221.222 163.599 221.693 163.669 222.016C163.739 222.332 163.839 222.61 163.968 222.851V223H160.997C160.856 222.707 160.751 222.35 160.681 221.928C160.616 221.5 160.584 221.061 160.584 220.609ZM160.944 217.19L160.962 218.772H159.652C159.377 218.772 159.143 218.811 158.949 218.887C158.762 218.963 158.609 219.068 158.492 219.203C158.381 219.332 158.299 219.479 158.246 219.643C158.199 219.807 158.176 219.979 158.176 220.161C158.176 220.337 158.217 220.495 158.299 220.636C158.387 220.771 158.504 220.876 158.65 220.952C158.797 221.028 158.961 221.066 159.143 221.066C159.471 221.066 159.749 221.005 159.978 220.882C160.212 220.753 160.391 220.598 160.514 220.416C160.637 220.234 160.698 220.064 160.698 219.906L161.349 221.119C161.231 221.354 161.097 221.591 160.944 221.831C160.798 222.071 160.613 222.294 160.391 222.499C160.174 222.698 159.907 222.862 159.591 222.991C159.274 223.114 158.891 223.176 158.439 223.176C157.854 223.176 157.314 223.056 156.822 222.815C156.336 222.575 155.946 222.241 155.653 221.813C155.36 221.38 155.214 220.882 155.214 220.319C155.214 219.827 155.302 219.388 155.478 219.001C155.659 218.614 155.932 218.286 156.295 218.017C156.658 217.747 157.121 217.542 157.684 217.401C158.246 217.261 158.908 217.19 159.67 217.19H160.944ZM169.224 220.891C169.499 220.891 169.733 220.841 169.927 220.741C170.126 220.636 170.275 220.489 170.375 220.302C170.48 220.108 170.53 219.877 170.524 219.607H173.311C173.316 220.322 173.141 220.949 172.783 221.488C172.432 222.021 171.951 222.438 171.342 222.736C170.738 223.029 170.056 223.176 169.294 223.176C168.55 223.176 167.899 223.056 167.343 222.815C166.786 222.569 166.32 222.229 165.945 221.796C165.576 221.356 165.298 220.844 165.11 220.258C164.929 219.672 164.838 219.036 164.838 218.351V218.148C164.838 217.463 164.929 216.827 165.11 216.241C165.298 215.649 165.576 215.137 165.945 214.703C166.32 214.264 166.783 213.924 167.334 213.684C167.891 213.438 168.538 213.314 169.276 213.314C170.067 213.314 170.765 213.464 171.368 213.763C171.978 214.062 172.455 214.495 172.801 215.063C173.146 215.632 173.316 216.32 173.311 217.129H170.524C170.53 216.842 170.486 216.584 170.393 216.355C170.299 216.127 170.152 215.945 169.953 215.811C169.76 215.67 169.511 215.6 169.206 215.6C168.901 215.6 168.655 215.667 168.468 215.802C168.28 215.937 168.137 216.124 168.037 216.364C167.943 216.599 167.879 216.868 167.844 217.173C167.814 217.478 167.8 217.803 167.8 218.148V218.351C167.8 218.702 167.814 219.033 167.844 219.344C167.879 219.648 167.946 219.918 168.046 220.152C168.146 220.381 168.289 220.562 168.477 220.697C168.664 220.826 168.913 220.891 169.224 220.891ZM179.586 213.49V215.547H173.855V213.49H179.586ZM175.06 211.126H178.021V219.897C178.021 220.149 178.051 220.346 178.109 220.486C178.168 220.621 178.268 220.718 178.408 220.776C178.555 220.829 178.748 220.855 178.988 220.855C179.158 220.855 179.299 220.853 179.41 220.847C179.521 220.835 179.627 220.82 179.727 220.803V222.921C179.475 223.003 179.211 223.064 178.936 223.105C178.66 223.152 178.367 223.176 178.057 223.176C177.424 223.176 176.882 223.076 176.431 222.877C175.985 222.678 175.646 222.364 175.411 221.937C175.177 221.509 175.06 220.952 175.06 220.267V211.126ZM196.074 210.203V223H192.998L188.472 215.037V223H185.387V210.203H188.472L192.998 218.166V210.203H196.074ZM202.824 220.609V216.689C202.824 216.42 202.786 216.188 202.71 215.995C202.634 215.802 202.514 215.652 202.35 215.547C202.186 215.436 201.966 215.38 201.69 215.38C201.468 215.38 201.277 215.418 201.119 215.494C200.961 215.57 200.841 215.685 200.759 215.837C200.677 215.989 200.636 216.183 200.636 216.417H197.674C197.674 215.978 197.771 215.57 197.964 215.195C198.163 214.814 198.444 214.483 198.808 214.202C199.177 213.921 199.616 213.704 200.126 213.552C200.642 213.394 201.216 213.314 201.849 213.314C202.604 213.314 203.278 213.44 203.87 213.692C204.468 213.944 204.939 214.322 205.285 214.826C205.631 215.324 205.804 215.951 205.804 216.707V220.601C205.804 221.222 205.839 221.693 205.909 222.016C205.979 222.332 206.079 222.61 206.208 222.851V223H203.237C203.097 222.707 202.991 222.35 202.921 221.928C202.856 221.5 202.824 221.061 202.824 220.609ZM203.185 217.19L203.202 218.772H201.893C201.617 218.772 201.383 218.811 201.189 218.887C201.002 218.963 200.85 219.068 200.732 219.203C200.621 219.332 200.539 219.479 200.486 219.643C200.439 219.807 200.416 219.979 200.416 220.161C200.416 220.337 200.457 220.495 200.539 220.636C200.627 220.771 200.744 220.876 200.891 220.952C201.037 221.028 201.201 221.066 201.383 221.066C201.711 221.066 201.989 221.005 202.218 220.882C202.452 220.753 202.631 220.598 202.754 220.416C202.877 220.234 202.938 220.064 202.938 219.906L203.589 221.119C203.472 221.354 203.337 221.591 203.185 221.831C203.038 222.071 202.854 222.294 202.631 222.499C202.414 222.698 202.147 222.862 201.831 222.991C201.515 223.114 201.131 223.176 200.68 223.176C200.094 223.176 199.555 223.056 199.062 222.815C198.576 222.575 198.187 222.241 197.894 221.813C197.601 221.38 197.454 220.882 197.454 220.319C197.454 219.827 197.542 219.388 197.718 219.001C197.899 218.614 198.172 218.286 198.535 218.017C198.898 217.747 199.361 217.542 199.924 217.401C200.486 217.261 201.148 217.19 201.91 217.19H203.185ZM212.457 213.49V215.547H206.727V213.49H212.457ZM207.931 211.126H210.893V219.897C210.893 220.149 210.922 220.346 210.98 220.486C211.039 220.621 211.139 220.718 211.279 220.776C211.426 220.829 211.619 220.855 211.859 220.855C212.029 220.855 212.17 220.853 212.281 220.847C212.393 220.835 212.498 220.82 212.598 220.803V222.921C212.346 223.003 212.082 223.064 211.807 223.105C211.531 223.152 211.238 223.176 210.928 223.176C210.295 223.176 209.753 223.076 209.302 222.877C208.856 222.678 208.517 222.364 208.282 221.937C208.048 221.509 207.931 220.952 207.931 220.267V211.126ZM216.764 213.49V223H213.793V213.49H216.764ZM213.617 211.038C213.617 210.616 213.77 210.271 214.074 210.001C214.379 209.731 214.774 209.597 215.261 209.597C215.747 209.597 216.143 209.731 216.447 210.001C216.752 210.271 216.904 210.616 216.904 211.038C216.904 211.46 216.752 211.806 216.447 212.075C216.143 212.345 215.747 212.479 215.261 212.479C214.774 212.479 214.379 212.345 214.074 212.075C213.77 211.806 213.617 211.46 213.617 211.038ZM222.02 220.97L223.892 213.49H227.012L223.9 223H222.055L222.02 220.97ZM220.912 213.49L222.758 220.97L222.74 223H220.886L217.783 213.49H220.912ZM232.373 223.176C231.6 223.176 230.908 223.056 230.299 222.815C229.689 222.569 229.174 222.232 228.752 221.805C228.336 221.377 228.017 220.885 227.794 220.328C227.577 219.771 227.469 219.183 227.469 218.562V218.228C227.469 217.53 227.565 216.886 227.759 216.294C227.952 215.696 228.239 215.175 228.62 214.729C229.001 214.284 229.479 213.938 230.053 213.692C230.627 213.44 231.295 213.314 232.057 213.314C232.73 213.314 233.334 213.423 233.867 213.64C234.4 213.856 234.852 214.167 235.221 214.571C235.596 214.976 235.88 215.465 236.073 216.039C236.272 216.613 236.372 217.258 236.372 217.973V219.177H228.603V217.322H233.48V217.094C233.486 216.777 233.431 216.508 233.313 216.285C233.202 216.062 233.038 215.893 232.821 215.775C232.604 215.658 232.341 215.6 232.03 215.6C231.708 215.6 231.441 215.67 231.23 215.811C231.025 215.951 230.864 216.145 230.747 216.391C230.636 216.631 230.557 216.909 230.51 217.226C230.463 217.542 230.439 217.876 230.439 218.228V218.562C230.439 218.913 230.486 219.232 230.58 219.52C230.68 219.807 230.82 220.053 231.002 220.258C231.189 220.457 231.412 220.612 231.67 220.724C231.934 220.835 232.232 220.891 232.566 220.891C232.971 220.891 233.369 220.814 233.762 220.662C234.154 220.51 234.491 220.258 234.772 219.906L236.117 221.506C235.924 221.781 235.648 222.048 235.291 222.306C234.939 222.563 234.518 222.774 234.025 222.938C233.533 223.097 232.982 223.176 232.373 223.176Z" fill="white"/>
<rect x="279" y="196" width="101" height="41" rx="3" fill="#424242"/>
<rect x="279" y="196" width="101" height="41" rx="3" stroke="#424242" stroke-width="4"/>
<path d="M306.262 223H303.423L303.44 220.627H306.262C306.848 220.627 307.343 220.486 307.747 220.205C308.157 219.924 308.468 219.505 308.679 218.948C308.896 218.386 309.004 217.694 309.004 216.874V216.32C309.004 215.705 308.942 215.166 308.819 214.703C308.702 214.234 308.526 213.845 308.292 213.534C308.058 213.218 307.765 212.98 307.413 212.822C307.067 212.664 306.669 212.585 306.218 212.585H303.37V210.203H306.218C307.085 210.203 307.879 210.353 308.6 210.651C309.326 210.944 309.953 211.366 310.48 211.917C311.014 212.462 311.424 213.109 311.711 213.859C312.004 214.604 312.15 215.43 312.15 216.338V216.874C312.15 217.776 312.004 218.603 311.711 219.353C311.424 220.103 311.017 220.75 310.489 221.295C309.962 221.84 309.338 222.262 308.617 222.561C307.902 222.854 307.117 223 306.262 223ZM305.189 210.203V223H302.104V210.203H305.189ZM313.838 213.49H316.809V223.308C316.809 224.069 316.662 224.711 316.369 225.232C316.076 225.76 315.657 226.158 315.112 226.428C314.567 226.703 313.917 226.841 313.161 226.841C312.909 226.841 312.678 226.829 312.467 226.806C312.25 226.788 312.013 226.75 311.755 226.691V224.45C311.907 224.474 312.048 224.491 312.177 224.503C312.306 224.521 312.446 224.529 312.599 224.529C312.868 224.529 313.094 224.485 313.275 224.397C313.457 224.31 313.595 224.175 313.688 223.993C313.788 223.812 313.838 223.583 313.838 223.308V213.49ZM313.618 211.038C313.618 210.616 313.771 210.271 314.075 210.001C314.38 209.731 314.775 209.597 315.262 209.597C315.748 209.597 316.144 209.731 316.448 210.001C316.753 210.271 316.905 210.616 316.905 211.038C316.905 211.46 316.753 211.806 316.448 212.075C316.144 212.345 315.748 212.479 315.262 212.479C314.775 212.479 314.38 212.345 314.075 212.075C313.771 211.806 313.618 211.46 313.618 211.038ZM323.427 220.609V216.689C323.427 216.42 323.389 216.188 323.312 215.995C323.236 215.802 323.116 215.652 322.952 215.547C322.788 215.436 322.568 215.38 322.293 215.38C322.07 215.38 321.88 215.418 321.722 215.494C321.563 215.57 321.443 215.685 321.361 215.837C321.279 215.989 321.238 216.183 321.238 216.417H318.276C318.276 215.978 318.373 215.57 318.566 215.195C318.766 214.814 319.047 214.483 319.41 214.202C319.779 213.921 320.219 213.704 320.729 213.552C321.244 213.394 321.818 213.314 322.451 213.314C323.207 213.314 323.881 213.44 324.473 213.692C325.07 213.944 325.542 214.322 325.888 214.826C326.233 215.324 326.406 215.951 326.406 216.707V220.601C326.406 221.222 326.441 221.693 326.512 222.016C326.582 222.332 326.682 222.61 326.811 222.851V223H323.84C323.699 222.707 323.594 222.35 323.523 221.928C323.459 221.5 323.427 221.061 323.427 220.609ZM323.787 217.19L323.805 218.772H322.495C322.22 218.772 321.985 218.811 321.792 218.887C321.604 218.963 321.452 219.068 321.335 219.203C321.224 219.332 321.142 219.479 321.089 219.643C321.042 219.807 321.019 219.979 321.019 220.161C321.019 220.337 321.06 220.495 321.142 220.636C321.229 220.771 321.347 220.876 321.493 220.952C321.64 221.028 321.804 221.066 321.985 221.066C322.313 221.066 322.592 221.005 322.82 220.882C323.055 220.753 323.233 220.598 323.356 220.416C323.479 220.234 323.541 220.064 323.541 219.906L324.191 221.119C324.074 221.354 323.939 221.591 323.787 221.831C323.641 222.071 323.456 222.294 323.233 222.499C323.017 222.698 322.75 222.862 322.434 222.991C322.117 223.114 321.733 223.176 321.282 223.176C320.696 223.176 320.157 223.056 319.665 222.815C319.179 222.575 318.789 222.241 318.496 221.813C318.203 221.38 318.057 220.882 318.057 220.319C318.057 219.827 318.145 219.388 318.32 219.001C318.502 218.614 318.774 218.286 319.138 218.017C319.501 217.747 319.964 217.542 320.526 217.401C321.089 217.261 321.751 217.19 322.513 217.19H323.787ZM330.959 215.521V223H327.997V213.49H330.774L330.959 215.521ZM330.607 217.92L329.913 217.938C329.913 217.211 330.001 216.563 330.177 215.995C330.353 215.421 330.602 214.935 330.924 214.536C331.246 214.138 331.63 213.836 332.075 213.631C332.526 213.42 333.027 213.314 333.578 213.314C334.018 213.314 334.419 213.379 334.782 213.508C335.151 213.637 335.468 213.845 335.731 214.132C336.001 214.419 336.206 214.8 336.347 215.274C336.493 215.743 336.566 216.323 336.566 217.015V223H333.587V217.006C333.587 216.625 333.534 216.335 333.429 216.136C333.323 215.931 333.171 215.79 332.972 215.714C332.772 215.638 332.529 215.6 332.242 215.6C331.938 215.6 331.68 215.658 331.469 215.775C331.258 215.893 331.088 216.057 330.959 216.268C330.836 216.473 330.745 216.716 330.687 216.997C330.634 217.278 330.607 217.586 330.607 217.92ZM344.187 213.49H346.876V222.631C346.876 223.51 346.674 224.254 346.27 224.863C345.865 225.479 345.3 225.944 344.573 226.261C343.853 226.583 343.009 226.744 342.042 226.744C341.614 226.744 341.178 226.688 340.732 226.577C340.287 226.472 339.871 226.313 339.484 226.103C339.098 225.892 338.772 225.631 338.509 225.32L339.748 223.58C339.988 223.85 340.29 224.078 340.653 224.266C341.017 224.459 341.444 224.556 341.937 224.556C342.364 224.556 342.722 224.479 343.009 224.327C343.302 224.175 343.524 223.952 343.677 223.659C343.829 223.372 343.905 223.023 343.905 222.613V215.74L344.187 213.49ZM337.867 218.359V218.175C337.867 217.454 337.955 216.798 338.131 216.206C338.312 215.608 338.57 215.096 338.904 214.668C339.244 214.234 339.654 213.9 340.135 213.666C340.615 213.432 341.157 213.314 341.761 213.314C342.411 213.314 342.944 213.44 343.36 213.692C343.782 213.938 344.119 214.284 344.371 214.729C344.629 215.175 344.828 215.696 344.969 216.294C345.115 216.886 345.238 217.524 345.338 218.21V218.43C345.238 219.074 345.101 219.684 344.925 220.258C344.755 220.826 344.532 221.33 344.257 221.77C343.981 222.209 343.636 222.555 343.22 222.807C342.81 223.053 342.317 223.176 341.743 223.176C341.146 223.176 340.606 223.056 340.126 222.815C339.651 222.575 339.244 222.238 338.904 221.805C338.57 221.371 338.312 220.861 338.131 220.275C337.955 219.689 337.867 219.051 337.867 218.359ZM340.829 218.175V218.359C340.829 218.717 340.861 219.048 340.926 219.353C340.996 219.657 341.102 219.927 341.242 220.161C341.383 220.39 341.556 220.568 341.761 220.697C341.972 220.826 342.218 220.891 342.499 220.891C342.927 220.891 343.272 220.8 343.536 220.618C343.8 220.437 343.99 220.179 344.107 219.845C344.225 219.511 344.274 219.118 344.257 218.667V217.973C344.269 217.586 344.242 217.246 344.178 216.953C344.113 216.654 344.011 216.405 343.87 216.206C343.735 216.007 343.554 215.857 343.325 215.758C343.103 215.652 342.833 215.6 342.517 215.6C342.241 215.6 341.998 215.664 341.787 215.793C341.576 215.922 341.4 216.104 341.26 216.338C341.119 216.566 341.011 216.839 340.935 217.155C340.864 217.466 340.829 217.806 340.829 218.175ZM348.212 218.342V218.157C348.212 217.46 348.312 216.818 348.511 216.232C348.71 215.641 349.003 215.128 349.39 214.694C349.776 214.261 350.254 213.924 350.822 213.684C351.391 213.438 352.047 213.314 352.791 213.314C353.541 213.314 354.2 213.438 354.769 213.684C355.343 213.924 355.823 214.261 356.21 214.694C356.597 215.128 356.89 215.641 357.089 216.232C357.288 216.818 357.388 217.46 357.388 218.157V218.342C357.388 219.033 357.288 219.675 357.089 220.267C356.89 220.853 356.597 221.365 356.21 221.805C355.823 222.238 355.346 222.575 354.777 222.815C354.209 223.056 353.553 223.176 352.809 223.176C352.064 223.176 351.405 223.056 350.831 222.815C350.257 222.575 349.776 222.238 349.39 221.805C349.003 221.365 348.71 220.853 348.511 220.267C348.312 219.675 348.212 219.033 348.212 218.342ZM351.174 218.157V218.342C351.174 218.699 351.2 219.033 351.253 219.344C351.306 219.654 351.394 219.927 351.517 220.161C351.64 220.39 351.807 220.568 352.018 220.697C352.229 220.826 352.492 220.891 352.809 220.891C353.119 220.891 353.377 220.826 353.582 220.697C353.793 220.568 353.96 220.39 354.083 220.161C354.206 219.927 354.294 219.654 354.347 219.344C354.399 219.033 354.426 218.699 354.426 218.342V218.157C354.426 217.812 354.399 217.486 354.347 217.182C354.294 216.871 354.206 216.599 354.083 216.364C353.96 216.124 353.793 215.937 353.582 215.802C353.371 215.667 353.107 215.6 352.791 215.6C352.48 215.6 352.22 215.667 352.009 215.802C351.804 215.937 351.64 216.124 351.517 216.364C351.394 216.599 351.306 216.871 351.253 217.182C351.2 217.486 351.174 217.812 351.174 218.157Z" fill="white"/>
<rect x="400" y="196" width="105" height="41" rx="3" fill="#424242"/>
<rect x="400" y="196" width="105" height="41" rx="3" stroke="#424242" stroke-width="4"/>
<path d="M434.175 216.347V216.865C434.175 217.844 434.037 218.723 433.762 219.502C433.492 220.275 433.108 220.938 432.61 221.488C432.112 222.033 431.523 222.452 430.844 222.745C430.164 223.032 429.414 223.176 428.594 223.176C427.768 223.176 427.012 223.032 426.326 222.745C425.646 222.452 425.055 222.033 424.551 221.488C424.053 220.938 423.666 220.275 423.391 219.502C423.121 218.723 422.986 217.844 422.986 216.865V216.347C422.986 215.368 423.121 214.489 423.391 213.71C423.666 212.931 424.05 212.269 424.542 211.724C425.04 211.173 425.629 210.754 426.309 210.467C426.994 210.174 427.75 210.027 428.576 210.027C429.396 210.027 430.146 210.174 430.826 210.467C431.512 210.754 432.104 211.173 432.602 211.724C433.1 212.269 433.486 212.931 433.762 213.71C434.037 214.489 434.175 215.368 434.175 216.347ZM431.046 216.865V216.329C431.046 215.696 430.99 215.14 430.879 214.659C430.773 214.173 430.615 213.766 430.404 213.438C430.193 213.109 429.933 212.863 429.622 212.699C429.317 212.529 428.969 212.444 428.576 212.444C428.166 212.444 427.809 212.529 427.504 212.699C427.199 212.863 426.944 213.109 426.739 213.438C426.534 213.766 426.379 214.173 426.273 214.659C426.174 215.14 426.124 215.696 426.124 216.329V216.865C426.124 217.492 426.174 218.049 426.273 218.535C426.379 219.016 426.534 219.423 426.739 219.757C426.95 220.091 427.208 220.343 427.513 220.513C427.823 220.683 428.184 220.768 428.594 220.768C428.986 220.768 429.335 220.683 429.64 220.513C429.944 220.343 430.199 220.091 430.404 219.757C430.615 219.423 430.773 219.016 430.879 218.535C430.99 218.049 431.046 217.492 431.046 216.865ZM438.622 215.318V226.656H435.66V213.49H438.42L438.622 215.318ZM444.458 218.131V218.315C444.458 219.007 444.379 219.648 444.221 220.24C444.062 220.832 443.828 221.348 443.518 221.787C443.207 222.227 442.82 222.569 442.357 222.815C441.9 223.056 441.37 223.176 440.767 223.176C440.198 223.176 439.709 223.05 439.299 222.798C438.889 222.546 438.546 222.197 438.271 221.752C437.995 221.307 437.772 220.797 437.603 220.223C437.433 219.648 437.298 219.042 437.198 218.403V218.166C437.298 217.48 437.433 216.845 437.603 216.259C437.772 215.667 437.995 215.151 438.271 214.712C438.546 214.272 438.886 213.93 439.29 213.684C439.7 213.438 440.189 213.314 440.758 213.314C441.361 213.314 441.892 213.429 442.349 213.657C442.812 213.886 443.198 214.214 443.509 214.642C443.825 215.063 444.062 215.57 444.221 216.162C444.379 216.754 444.458 217.41 444.458 218.131ZM441.496 218.315V218.131C441.496 217.762 441.47 217.425 441.417 217.12C441.364 216.81 441.279 216.54 441.162 216.312C441.051 216.083 440.901 215.907 440.714 215.784C440.526 215.661 440.295 215.6 440.02 215.6C439.703 215.6 439.437 215.649 439.22 215.749C439.009 215.843 438.839 215.989 438.71 216.188C438.587 216.382 438.499 216.625 438.446 216.918C438.399 217.205 438.379 217.542 438.385 217.929V218.649C438.373 219.095 438.417 219.487 438.517 219.827C438.616 220.161 438.789 220.422 439.035 220.609C439.281 220.797 439.615 220.891 440.037 220.891C440.318 220.891 440.553 220.826 440.74 220.697C440.928 220.562 441.077 220.378 441.188 220.144C441.3 219.903 441.379 219.628 441.426 219.317C441.473 219.007 441.496 218.673 441.496 218.315ZM450.382 223.176C449.608 223.176 448.917 223.056 448.308 222.815C447.698 222.569 447.183 222.232 446.761 221.805C446.345 221.377 446.025 220.885 445.803 220.328C445.586 219.771 445.478 219.183 445.478 218.562V218.228C445.478 217.53 445.574 216.886 445.768 216.294C445.961 215.696 446.248 215.175 446.629 214.729C447.01 214.284 447.487 213.938 448.062 213.692C448.636 213.44 449.304 213.314 450.065 213.314C450.739 213.314 451.343 213.423 451.876 213.64C452.409 213.856 452.86 214.167 453.229 214.571C453.604 214.976 453.889 215.465 454.082 216.039C454.281 216.613 454.381 217.258 454.381 217.973V219.177H446.611V217.322H451.489V217.094C451.495 216.777 451.439 216.508 451.322 216.285C451.211 216.062 451.047 215.893 450.83 215.775C450.613 215.658 450.35 215.6 450.039 215.6C449.717 215.6 449.45 215.67 449.239 215.811C449.034 215.951 448.873 216.145 448.756 216.391C448.645 216.631 448.565 216.909 448.519 217.226C448.472 217.542 448.448 217.876 448.448 218.228V218.562C448.448 218.913 448.495 219.232 448.589 219.52C448.688 219.807 448.829 220.053 449.011 220.258C449.198 220.457 449.421 220.612 449.679 220.724C449.942 220.835 450.241 220.891 450.575 220.891C450.979 220.891 451.378 220.814 451.771 220.662C452.163 220.51 452.5 220.258 452.781 219.906L454.126 221.506C453.933 221.781 453.657 222.048 453.3 222.306C452.948 222.563 452.526 222.774 452.034 222.938C451.542 223.097 450.991 223.176 450.382 223.176ZM458.494 215.521V223H455.532V213.49H458.31L458.494 215.521ZM458.143 217.92L457.448 217.938C457.448 217.211 457.536 216.563 457.712 215.995C457.888 215.421 458.137 214.935 458.459 214.536C458.781 214.138 459.165 213.836 459.61 213.631C460.062 213.42 460.562 213.314 461.113 213.314C461.553 213.314 461.954 213.379 462.317 213.508C462.687 213.637 463.003 213.845 463.267 214.132C463.536 214.419 463.741 214.8 463.882 215.274C464.028 215.743 464.102 216.323 464.102 217.015V223H461.122V217.006C461.122 216.625 461.069 216.335 460.964 216.136C460.858 215.931 460.706 215.79 460.507 215.714C460.308 215.638 460.064 215.6 459.777 215.6C459.473 215.6 459.215 215.658 459.004 215.775C458.793 215.893 458.623 216.057 458.494 216.268C458.371 216.473 458.28 216.716 458.222 216.997C458.169 217.278 458.143 217.586 458.143 217.92ZM471.309 212.893L468.188 223H464.875L469.577 210.203H471.678L471.309 212.893ZM473.893 223L470.764 212.893L470.359 210.203H472.486L477.215 223H473.893ZM473.77 218.228V220.609H467.204V218.228H473.77ZM481.434 210.203V223H478.357V210.203H481.434Z" fill="white"/>
<rect x="525" y="196" width="84" height="41" rx="3" fill="#424242"/>
<rect x="525" y="196" width="84" height="41" rx="3" stroke="#424242" stroke-width="4"/>
<path d="M556.972 220.627V223H550.151V220.627H556.972ZM551.25 210.203V223H548.165V210.203H551.25ZM556.093 215.283V217.577H550.151V215.283H556.093ZM556.998 210.203V212.585H550.151V210.203H556.998ZM560.61 213.49L561.946 216.109L563.326 213.49H566.402L563.906 218.122L566.534 223H563.432L561.946 220.188L560.47 223H557.367L559.995 218.122L557.508 213.49H560.61ZM570.366 215.318V226.656H567.404V213.49H570.164L570.366 215.318ZM576.202 218.131V218.315C576.202 219.007 576.123 219.648 575.965 220.24C575.807 220.832 575.572 221.348 575.262 221.787C574.951 222.227 574.564 222.569 574.102 222.815C573.645 223.056 573.114 223.176 572.511 223.176C571.942 223.176 571.453 223.05 571.043 222.798C570.633 222.546 570.29 222.197 570.015 221.752C569.739 221.307 569.517 220.797 569.347 220.223C569.177 219.648 569.042 219.042 568.942 218.403V218.166C569.042 217.48 569.177 216.845 569.347 216.259C569.517 215.667 569.739 215.151 570.015 214.712C570.29 214.272 570.63 213.93 571.034 213.684C571.444 213.438 571.934 213.314 572.502 213.314C573.105 213.314 573.636 213.429 574.093 213.657C574.556 213.886 574.942 214.214 575.253 214.642C575.569 215.063 575.807 215.57 575.965 216.162C576.123 216.754 576.202 217.41 576.202 218.131ZM573.24 218.315V218.131C573.24 217.762 573.214 217.425 573.161 217.12C573.108 216.81 573.023 216.54 572.906 216.312C572.795 216.083 572.646 215.907 572.458 215.784C572.271 215.661 572.039 215.6 571.764 215.6C571.447 215.6 571.181 215.649 570.964 215.749C570.753 215.843 570.583 215.989 570.454 216.188C570.331 216.382 570.243 216.625 570.19 216.918C570.144 217.205 570.123 217.542 570.129 217.929V218.649C570.117 219.095 570.161 219.487 570.261 219.827C570.36 220.161 570.533 220.422 570.779 220.609C571.025 220.797 571.359 220.891 571.781 220.891C572.062 220.891 572.297 220.826 572.484 220.697C572.672 220.562 572.821 220.378 572.933 220.144C573.044 219.903 573.123 219.628 573.17 219.317C573.217 219.007 573.24 218.673 573.24 218.315ZM577.151 218.342V218.157C577.151 217.46 577.251 216.818 577.45 216.232C577.649 215.641 577.942 215.128 578.329 214.694C578.716 214.261 579.193 213.924 579.762 213.684C580.33 213.438 580.986 213.314 581.73 213.314C582.48 213.314 583.14 213.438 583.708 213.684C584.282 213.924 584.763 214.261 585.149 214.694C585.536 215.128 585.829 215.641 586.028 216.232C586.228 216.818 586.327 217.46 586.327 218.157V218.342C586.327 219.033 586.228 219.675 586.028 220.267C585.829 220.853 585.536 221.365 585.149 221.805C584.763 222.238 584.285 222.575 583.717 222.815C583.148 223.056 582.492 223.176 581.748 223.176C581.004 223.176 580.345 223.056 579.771 222.815C579.196 222.575 578.716 222.238 578.329 221.805C577.942 221.365 577.649 220.853 577.45 220.267C577.251 219.675 577.151 219.033 577.151 218.342ZM580.113 218.157V218.342C580.113 218.699 580.14 219.033 580.192 219.344C580.245 219.654 580.333 219.927 580.456 220.161C580.579 220.39 580.746 220.568 580.957 220.697C581.168 220.826 581.432 220.891 581.748 220.891C582.059 220.891 582.316 220.826 582.521 220.697C582.732 220.568 582.899 220.39 583.022 220.161C583.146 219.927 583.233 219.654 583.286 219.344C583.339 219.033 583.365 218.699 583.365 218.342V218.157C583.365 217.812 583.339 217.486 583.286 217.182C583.233 216.871 583.146 216.599 583.022 216.364C582.899 216.124 582.732 215.937 582.521 215.802C582.311 215.667 582.047 215.6 581.73 215.6C581.42 215.6 581.159 215.667 580.948 215.802C580.743 215.937 580.579 216.124 580.456 216.364C580.333 216.599 580.245 216.871 580.192 217.182C580.14 217.486 580.113 217.812 580.113 218.157Z" fill="white"/>
<g clip-path="url(#clip0_3_3)">
<path d="M1392.7 -29.7H1036.3V326.7H1392.7V-29.7Z" fill="white"/>
<path d="M1363 0H1066V297H1363V0Z" fill="white"/>
<g clip-path="url(#clip1_3_3)">
<path d="M1230.76 225.5H1316.41C1358.87 225.5 1393.5 190.698 1393.5 147.917C1393.5 105.303 1358.87 70.5 1316.41 70.5H1230.76C1188.14 70.5 1153.5 105.299 1153.5 147.917C1153.5 190.702 1188.13 225.5 1230.76 225.5ZM1165.2 147.917C1165.2 111.748 1194.6 82.2363 1230.76 82.2363H1316.41C1352.4 82.2363 1381.8 111.744 1381.8 147.917C1381.8 184.26 1352.39 213.768 1316.41 213.768H1230.76C1194.6 213.768 1165.2 184.256 1165.2 147.917Z" fill="#A00119" stroke="#A00119" stroke-width="5"/>
<path d="M1230.61 200.5H1315.39C1343.54 200.5 1366.5 176.966 1366.5 148.002C1366.5 119.212 1343.55 95.5 1315.39 95.5H1230.61C1202.28 95.5 1179.5 119.218 1179.5 148.002C1179.5 176.96 1202.29 200.5 1230.61 200.5ZM1191.13 148.002C1191.13 125.589 1208.84 107.328 1230.61 107.328H1315.39C1337 107.328 1354.87 125.596 1354.87 148.002C1354.87 170.57 1337.01 188.676 1315.39 188.676H1230.61C1208.83 188.676 1191.13 170.576 1191.13 148.002Z" fill="#A00119" stroke="#A00119" stroke-width="5"/>
<path d="M1230.65 173.5H1316.35C1330.58 173.5 1342.5 162.135 1342.5 147.92C1342.5 133.854 1330.56 122.5 1316.35 122.5H1230.65C1216.26 122.5 1204.5 133.865 1204.5 147.92C1204.5 162.124 1216.24 173.5 1230.65 173.5ZM1216.21 147.92C1216.21 140.37 1222.56 134.05 1230.65 134.05H1316.35C1324.25 134.05 1330.62 140.354 1330.62 147.92C1330.62 155.666 1324.24 161.954 1316.35 161.954H1230.65C1222.58 161.954 1216.21 155.65 1216.21 147.92Z" fill="#A00119" stroke="#A00119" stroke-width="5"/>
</g>
</g>
<defs>
<clipPath id="clip0_3_3">
<path d="M1066 0H1348C1356.28 0 1363 6.71573 1363 15V282C1363 290.284 1356.28 297 1348 297H1066V0Z" fill="white"/>
</clipPath>
<clipPath id="clip1_3_3">
<rect width="129" height="160" fill="white" transform="translate(1150 68)"/>
</clipPath>
</defs>
</svg>
