<svg width="1363" height="297" viewBox="0 0 1363 297" fill="none" xmlns="http://www.w3.org/2000/svg">
<path d="M0 15C0 6.71573 6.71573 0 15 0H37V297H15C6.71573 297 0 290.284 0 282V15Z" fill="#A00119"/>
<path d="M37 0H1066V297H37V0Z" fill="#F0F0F0"/>
<path d="M115.57 61.623V71.7656C115.172 72.2461 114.557 72.7676 113.725 73.3301C112.893 73.8809 111.82 74.3555 110.508 74.7539C109.195 75.1523 107.607 75.3516 105.744 75.3516C104.092 75.3516 102.586 75.082 101.227 74.543C99.8672 73.9922 98.6953 73.1895 97.7109 72.1348C96.7383 71.0801 95.9883 69.791 95.4609 68.2676C94.9336 66.7324 94.6699 64.9805 94.6699 63.0117V61.4121C94.6699 59.4434 94.9219 57.6914 95.4258 56.1562C95.9414 54.6211 96.6738 53.3262 97.623 52.2715C98.5723 51.2168 99.7031 50.4141 101.016 49.8633C102.328 49.3125 103.787 49.0371 105.393 49.0371C107.619 49.0371 109.447 49.4004 110.877 50.127C112.307 50.8418 113.396 51.8379 114.146 53.1152C114.908 54.3809 115.377 55.834 115.553 57.4746H110.438C110.309 56.6074 110.062 55.8516 109.699 55.207C109.336 54.5625 108.814 54.0586 108.135 53.6953C107.467 53.332 106.6 53.1504 105.533 53.1504C104.654 53.1504 103.869 53.332 103.178 53.6953C102.498 54.0469 101.924 54.5684 101.455 55.2598C100.986 55.9512 100.629 56.8066 100.383 57.8262C100.137 58.8457 100.014 60.0293 100.014 61.377V63.0117C100.014 64.3477 100.143 65.5312 100.4 66.5625C100.658 67.582 101.039 68.4434 101.543 69.1465C102.059 69.8379 102.691 70.3594 103.441 70.7109C104.191 71.0625 105.064 71.2383 106.061 71.2383C106.893 71.2383 107.584 71.168 108.135 71.0273C108.697 70.8867 109.148 70.7168 109.488 70.5176C109.84 70.3066 110.109 70.1074 110.297 69.9199V65.3848H105.48V61.623H115.57ZM124.447 48V75H119.385V48H124.447ZM123.727 64.8223H122.338C122.35 63.498 122.525 62.2793 122.865 61.166C123.205 60.041 123.691 59.0684 124.324 58.248C124.957 57.416 125.713 56.7715 126.592 56.3145C127.482 55.8574 128.467 55.6289 129.545 55.6289C130.482 55.6289 131.332 55.7637 132.094 56.0332C132.867 56.291 133.529 56.7129 134.08 57.2988C134.643 57.873 135.076 58.6289 135.381 59.5664C135.686 60.5039 135.838 61.6406 135.838 62.9766V75H130.74V62.9414C130.74 62.0977 130.617 61.4355 130.371 60.9551C130.137 60.4629 129.791 60.1172 129.334 59.918C128.889 59.707 128.338 59.6016 127.682 59.6016C126.955 59.6016 126.334 59.7363 125.818 60.0059C125.314 60.2754 124.91 60.6504 124.605 61.1309C124.301 61.5996 124.078 62.1504 123.938 62.7832C123.797 63.416 123.727 64.0957 123.727 64.8223ZM145.031 55.9805V75H139.951V55.9805H145.031ZM139.635 51.0234C139.635 50.2852 139.893 49.6758 140.408 49.1953C140.924 48.7148 141.615 48.4746 142.482 48.4746C143.338 48.4746 144.023 48.7148 144.539 49.1953C145.066 49.6758 145.33 50.2852 145.33 51.0234C145.33 51.7617 145.066 52.3711 144.539 52.8516C144.023 53.332 143.338 53.5723 142.482 53.5723C141.615 53.5723 140.924 53.332 140.408 52.8516C139.893 52.3711 139.635 51.7617 139.635 51.0234ZM154.646 70.0781L158.602 55.9805H161.818L160.781 61.5176L156.826 75H154.137L154.646 70.0781ZM152.643 55.9805L155.473 70.0605L155.736 75H152.572L147.756 55.9805H152.643ZM165.439 69.832L168.199 55.9805H173.104L168.287 75H165.141L165.439 69.832ZM162.258 55.9805L166.195 69.9727L166.74 75H164.033L160.078 61.5352L159.076 55.9805H162.258ZM185.918 70.7109V62.2383C185.918 61.6289 185.818 61.1074 185.619 60.6738C185.42 60.2285 185.109 59.8828 184.688 59.6367C184.277 59.3906 183.744 59.2676 183.088 59.2676C182.525 59.2676 182.039 59.3672 181.629 59.5664C181.219 59.7539 180.902 60.0293 180.68 60.3926C180.457 60.7441 180.346 61.1602 180.346 61.6406H175.283C175.283 60.832 175.471 60.0645 175.846 59.3379C176.221 58.6113 176.766 57.9727 177.48 57.4219C178.195 56.8594 179.045 56.4199 180.029 56.1035C181.025 55.7871 182.139 55.6289 183.369 55.6289C184.846 55.6289 186.158 55.875 187.307 56.3672C188.455 56.8594 189.357 57.5977 190.014 58.582C190.682 59.5664 191.016 60.7969 191.016 62.2734V70.4121C191.016 71.4551 191.08 72.3105 191.209 72.9785C191.338 73.6348 191.525 74.209 191.771 74.7012V75H186.656C186.41 74.4844 186.223 73.8398 186.094 73.0664C185.977 72.2812 185.918 71.4961 185.918 70.7109ZM186.586 63.416L186.621 66.2812H183.791C183.123 66.2812 182.543 66.3574 182.051 66.5098C181.559 66.6621 181.154 66.8789 180.838 67.1602C180.521 67.4297 180.287 67.7461 180.135 68.1094C179.994 68.4727 179.924 68.8711 179.924 69.3047C179.924 69.7383 180.023 70.1309 180.223 70.4824C180.422 70.8223 180.709 71.0918 181.084 71.291C181.459 71.4785 181.898 71.5723 182.402 71.5723C183.164 71.5723 183.826 71.4199 184.389 71.1152C184.951 70.8105 185.385 70.4355 185.689 69.9902C186.006 69.5449 186.17 69.123 186.182 68.7246L187.518 70.8691C187.33 71.3496 187.072 71.8477 186.744 72.3633C186.428 72.8789 186.023 73.3652 185.531 73.8223C185.039 74.2676 184.447 74.6367 183.756 74.9297C183.064 75.2109 182.244 75.3516 181.295 75.3516C180.088 75.3516 178.992 75.1113 178.008 74.6309C177.035 74.1387 176.262 73.4648 175.688 72.6094C175.125 71.7422 174.844 70.7578 174.844 69.6562C174.844 68.6602 175.031 67.7754 175.406 67.002C175.781 66.2285 176.332 65.5781 177.059 65.0508C177.797 64.5117 178.717 64.1074 179.818 63.8379C180.92 63.5566 182.197 63.416 183.65 63.416H186.586ZM221.373 70.8867V75H207.75V70.8867H221.373ZM209.473 49.4062V75H204.199V49.4062H209.473ZM219.598 59.8301V63.8379H207.75V59.8301H219.598ZM221.355 49.4062V53.5371H207.75V49.4062H221.355ZM229.477 48V75H224.396V48H229.477ZM250.799 75H245.227L245.262 70.8867H250.799C252.182 70.8867 253.348 70.5762 254.297 69.9551C255.246 69.3223 255.961 68.4023 256.441 67.1953C256.934 65.9883 257.18 64.5293 257.18 62.8184V61.5703C257.18 60.2578 257.039 59.1035 256.758 58.1074C256.488 57.1113 256.084 56.2734 255.545 55.5938C255.006 54.9141 254.344 54.4043 253.559 54.0645C252.773 53.7129 251.871 53.5371 250.852 53.5371H245.121V49.4062H250.852C252.562 49.4062 254.127 49.6992 255.545 50.2852C256.975 50.8594 258.211 51.6855 259.254 52.7637C260.297 53.8418 261.1 55.1309 261.662 56.6309C262.236 58.1191 262.523 59.7773 262.523 61.6055V62.8184C262.523 64.6348 262.236 66.293 261.662 67.793C261.1 69.293 260.297 70.582 259.254 71.6602C258.223 72.7266 256.986 73.5527 255.545 74.1387C254.115 74.7129 252.533 75 250.799 75ZM248.215 49.4062V75H242.941V49.4062H248.215ZM276.305 70.7109V62.2383C276.305 61.6289 276.205 61.1074 276.006 60.6738C275.807 60.2285 275.496 59.8828 275.074 59.6367C274.664 59.3906 274.131 59.2676 273.475 59.2676C272.912 59.2676 272.426 59.3672 272.016 59.5664C271.605 59.7539 271.289 60.0293 271.066 60.3926C270.844 60.7441 270.732 61.1602 270.732 61.6406H265.67C265.67 60.832 265.857 60.0645 266.232 59.3379C266.607 58.6113 267.152 57.9727 267.867 57.4219C268.582 56.8594 269.432 56.4199 270.416 56.1035C271.412 55.7871 272.525 55.6289 273.756 55.6289C275.232 55.6289 276.545 55.875 277.693 56.3672C278.842 56.8594 279.744 57.5977 280.4 58.582C281.068 59.5664 281.402 60.7969 281.402 62.2734V70.4121C281.402 71.4551 281.467 72.3105 281.596 72.9785C281.725 73.6348 281.912 74.209 282.158 74.7012V75H277.043C276.797 74.4844 276.609 73.8398 276.48 73.0664C276.363 72.2812 276.305 71.4961 276.305 70.7109ZM276.973 63.416L277.008 66.2812H274.178C273.51 66.2812 272.93 66.3574 272.438 66.5098C271.945 66.6621 271.541 66.8789 271.225 67.1602C270.908 67.4297 270.674 67.7461 270.521 68.1094C270.381 68.4727 270.311 68.8711 270.311 69.3047C270.311 69.7383 270.41 70.1309 270.609 70.4824C270.809 70.8223 271.096 71.0918 271.471 71.291C271.846 71.4785 272.285 71.5723 272.789 71.5723C273.551 71.5723 274.213 71.4199 274.775 71.1152C275.338 70.8105 275.771 70.4355 276.076 69.9902C276.393 69.5449 276.557 69.123 276.568 68.7246L277.904 70.8691C277.717 71.3496 277.459 71.8477 277.131 72.3633C276.814 72.8789 276.41 73.3652 275.918 73.8223C275.426 74.2676 274.834 74.6367 274.143 74.9297C273.451 75.2109 272.631 75.3516 271.682 75.3516C270.475 75.3516 269.379 75.1113 268.395 74.6309C267.422 74.1387 266.648 73.4648 266.074 72.6094C265.512 71.7422 265.23 70.7578 265.23 69.6562C265.23 68.6602 265.418 67.7754 265.793 67.002C266.168 66.2285 266.719 65.5781 267.445 65.0508C268.184 64.5117 269.104 64.1074 270.205 63.8379C271.307 63.5566 272.584 63.416 274.037 63.416H276.973ZM293.162 71.3965C293.783 71.3965 294.334 71.2793 294.814 71.0449C295.295 70.7988 295.67 70.459 295.939 70.0254C296.221 69.5801 296.367 69.0586 296.379 68.4609H301.143C301.131 69.7969 300.773 70.9863 300.07 72.0293C299.367 73.0605 298.424 73.875 297.24 74.4727C296.057 75.0586 294.732 75.3516 293.268 75.3516C291.791 75.3516 290.502 75.1055 289.4 74.6133C288.311 74.1211 287.402 73.4414 286.676 72.5742C285.949 71.6953 285.404 70.6758 285.041 69.5156C284.678 68.3438 284.496 67.0898 284.496 65.7539V65.2441C284.496 63.8965 284.678 62.6426 285.041 61.4824C285.404 60.3105 285.949 59.291 286.676 58.4238C287.402 57.5449 288.311 56.8594 289.4 56.3672C290.49 55.875 291.768 55.6289 293.232 55.6289C294.791 55.6289 296.156 55.9277 297.328 56.5254C298.512 57.123 299.438 57.9785 300.105 59.0918C300.785 60.1934 301.131 61.5 301.143 63.0117H296.379C296.367 62.3789 296.232 61.8047 295.975 61.2891C295.729 60.7734 295.365 60.3633 294.885 60.0586C294.416 59.7422 293.836 59.584 293.145 59.584C292.406 59.584 291.803 59.7422 291.334 60.0586C290.865 60.3633 290.502 60.7852 290.244 61.3242C289.986 61.8516 289.805 62.4551 289.699 63.1348C289.605 63.8027 289.559 64.5059 289.559 65.2441V65.7539C289.559 66.4922 289.605 67.2012 289.699 67.8809C289.793 68.5605 289.969 69.1641 290.227 69.6914C290.496 70.2188 290.865 70.6348 291.334 70.9395C291.803 71.2441 292.412 71.3965 293.162 71.3965ZM311.936 71.3965C312.557 71.3965 313.107 71.2793 313.588 71.0449C314.068 70.7988 314.443 70.459 314.713 70.0254C314.994 69.5801 315.141 69.0586 315.152 68.4609H319.916C319.904 69.7969 319.547 70.9863 318.844 72.0293C318.141 73.0605 317.197 73.875 316.014 74.4727C314.83 75.0586 313.506 75.3516 312.041 75.3516C310.564 75.3516 309.275 75.1055 308.174 74.6133C307.084 74.1211 306.176 73.4414 305.449 72.5742C304.723 71.6953 304.178 70.6758 303.814 69.5156C303.451 68.3438 303.27 67.0898 303.27 65.7539V65.2441C303.27 63.8965 303.451 62.6426 303.814 61.4824C304.178 60.3105 304.723 59.291 305.449 58.4238C306.176 57.5449 307.084 56.8594 308.174 56.3672C309.264 55.875 310.541 55.6289 312.006 55.6289C313.564 55.6289 314.93 55.9277 316.102 56.5254C317.285 57.123 318.211 57.9785 318.879 59.0918C319.559 60.1934 319.904 61.5 319.916 63.0117H315.152C315.141 62.3789 315.006 61.8047 314.748 61.2891C314.502 60.7734 314.139 60.3633 313.658 60.0586C313.189 59.7422 312.609 59.584 311.918 59.584C311.18 59.584 310.576 59.7422 310.107 60.0586C309.639 60.3633 309.275 60.7852 309.018 61.3242C308.76 61.8516 308.578 62.4551 308.473 63.1348C308.379 63.8027 308.332 64.5059 308.332 65.2441V65.7539C308.332 66.4922 308.379 67.2012 308.473 67.8809C308.566 68.5605 308.742 69.1641 309 69.6914C309.27 70.2188 309.639 70.6348 310.107 70.9395C310.576 71.2441 311.186 71.3965 311.936 71.3965ZM333.117 70.7109V62.2383C333.117 61.6289 333.018 61.1074 332.818 60.6738C332.619 60.2285 332.309 59.8828 331.887 59.6367C331.477 59.3906 330.943 59.2676 330.287 59.2676C329.725 59.2676 329.238 59.3672 328.828 59.5664C328.418 59.7539 328.102 60.0293 327.879 60.3926C327.656 60.7441 327.545 61.1602 327.545 61.6406H322.482C322.482 60.832 322.67 60.0645 323.045 59.3379C323.42 58.6113 323.965 57.9727 324.68 57.4219C325.395 56.8594 326.244 56.4199 327.229 56.1035C328.225 55.7871 329.338 55.6289 330.568 55.6289C332.045 55.6289 333.357 55.875 334.506 56.3672C335.654 56.8594 336.557 57.5977 337.213 58.582C337.881 59.5664 338.215 60.7969 338.215 62.2734V70.4121C338.215 71.4551 338.279 72.3105 338.408 72.9785C338.537 73.6348 338.725 74.209 338.971 74.7012V75H333.855C333.609 74.4844 333.422 73.8398 333.293 73.0664C333.176 72.2812 333.117 71.4961 333.117 70.7109ZM333.785 63.416L333.82 66.2812H330.99C330.322 66.2812 329.742 66.3574 329.25 66.5098C328.758 66.6621 328.354 66.8789 328.037 67.1602C327.721 67.4297 327.486 67.7461 327.334 68.1094C327.193 68.4727 327.123 68.8711 327.123 69.3047C327.123 69.7383 327.223 70.1309 327.422 70.4824C327.621 70.8223 327.908 71.0918 328.283 71.291C328.658 71.4785 329.098 71.5723 329.602 71.5723C330.363 71.5723 331.025 71.4199 331.588 71.1152C332.15 70.8105 332.584 70.4355 332.889 69.9902C333.205 69.5449 333.369 69.123 333.381 68.7246L334.717 70.8691C334.529 71.3496 334.271 71.8477 333.943 72.3633C333.627 72.8789 333.223 73.3652 332.73 73.8223C332.238 74.2676 331.646 74.6367 330.955 74.9297C330.264 75.2109 329.443 75.3516 328.494 75.3516C327.287 75.3516 326.191 75.1113 325.207 74.6309C324.234 74.1387 323.461 73.4648 322.887 72.6094C322.324 71.7422 322.043 70.7578 322.043 69.6562C322.043 68.6602 322.23 67.7754 322.605 67.002C322.98 66.2285 323.531 65.5781 324.258 65.0508C324.996 64.5117 325.916 64.1074 327.018 63.8379C328.119 63.5566 329.396 63.416 330.85 63.416H333.785ZM349.975 71.3965C350.596 71.3965 351.146 71.2793 351.627 71.0449C352.107 70.7988 352.482 70.459 352.752 70.0254C353.033 69.5801 353.18 69.0586 353.191 68.4609H357.955C357.943 69.7969 357.586 70.9863 356.883 72.0293C356.18 73.0605 355.236 73.875 354.053 74.4727C352.869 75.0586 351.545 75.3516 350.08 75.3516C348.604 75.3516 347.314 75.1055 346.213 74.6133C345.123 74.1211 344.215 73.4414 343.488 72.5742C342.762 71.6953 342.217 70.6758 341.854 69.5156C341.49 68.3438 341.309 67.0898 341.309 65.7539V65.2441C341.309 63.8965 341.49 62.6426 341.854 61.4824C342.217 60.3105 342.762 59.291 343.488 58.4238C344.215 57.5449 345.123 56.8594 346.213 56.3672C347.303 55.875 348.58 55.6289 350.045 55.6289C351.604 55.6289 352.969 55.9277 354.141 56.5254C355.324 57.123 356.25 57.9785 356.918 59.0918C357.598 60.1934 357.943 61.5 357.955 63.0117H353.191C353.18 62.3789 353.045 61.8047 352.787 61.2891C352.541 60.7734 352.178 60.3633 351.697 60.0586C351.229 59.7422 350.648 59.584 349.957 59.584C349.219 59.584 348.615 59.7422 348.146 60.0586C347.678 60.3633 347.314 60.7852 347.057 61.3242C346.799 61.8516 346.617 62.4551 346.512 63.1348C346.418 63.8027 346.371 64.5059 346.371 65.2441V65.7539C346.371 66.4922 346.418 67.2012 346.512 67.8809C346.605 68.5605 346.781 69.1641 347.039 69.6914C347.309 70.2188 347.678 70.6348 348.146 70.9395C348.615 71.2441 349.225 71.3965 349.975 71.3965ZM365.83 48V75H360.768V48H365.83ZM365.109 64.8223H363.721C363.732 63.498 363.908 62.2793 364.248 61.166C364.588 60.041 365.074 59.0684 365.707 58.248C366.34 57.416 367.096 56.7715 367.975 56.3145C368.865 55.8574 369.85 55.6289 370.928 55.6289C371.865 55.6289 372.715 55.7637 373.477 56.0332C374.25 56.291 374.912 56.7129 375.463 57.2988C376.025 57.873 376.459 58.6289 376.764 59.5664C377.068 60.5039 377.221 61.6406 377.221 62.9766V75H372.123V62.9414C372.123 62.0977 372 61.4355 371.754 60.9551C371.52 60.4629 371.174 60.1172 370.717 59.918C370.271 59.707 369.721 59.6016 369.064 59.6016C368.338 59.6016 367.717 59.7363 367.201 60.0059C366.697 60.2754 366.293 60.6504 365.988 61.1309C365.684 61.5996 365.461 62.1504 365.32 62.7832C365.18 63.416 365.109 64.0957 365.109 64.8223ZM389.824 75.3516C388.348 75.3516 387.023 75.1172 385.852 74.6484C384.68 74.168 383.684 73.5059 382.863 72.6621C382.055 71.8184 381.434 70.8398 381 69.7266C380.566 68.6016 380.35 67.4062 380.35 66.1406V65.4375C380.35 63.9961 380.555 62.6777 380.965 61.4824C381.375 60.2871 381.961 59.25 382.723 58.3711C383.496 57.4922 384.434 56.8184 385.535 56.3496C386.637 55.8691 387.879 55.6289 389.262 55.6289C390.609 55.6289 391.805 55.8516 392.848 56.2969C393.891 56.7422 394.764 57.375 395.467 58.1953C396.182 59.0156 396.721 60 397.084 61.1484C397.447 62.2852 397.629 63.5508 397.629 64.9453V67.0547H382.512V63.6797H392.654V63.293C392.654 62.5898 392.525 61.9629 392.268 61.4121C392.021 60.8496 391.646 60.4043 391.143 60.0762C390.639 59.748 389.994 59.584 389.209 59.584C388.541 59.584 387.967 59.7305 387.486 60.0234C387.006 60.3164 386.613 60.7266 386.309 61.2539C386.016 61.7812 385.793 62.4023 385.641 63.1172C385.5 63.8203 385.43 64.5938 385.43 65.4375V66.1406C385.43 66.9023 385.535 67.6055 385.746 68.25C385.969 68.8945 386.279 69.4512 386.678 69.9199C387.088 70.3887 387.58 70.752 388.154 71.0098C388.74 71.2676 389.402 71.3965 390.141 71.3965C391.055 71.3965 391.904 71.2207 392.689 70.8691C393.486 70.5059 394.172 69.9609 394.746 69.2344L397.207 71.9062C396.809 72.4805 396.264 73.0312 395.572 73.5586C394.893 74.0859 394.072 74.5195 393.111 74.8594C392.15 75.1875 391.055 75.3516 389.824 75.3516Z" fill="#888888"/>
<path d="M118.676 126.52H128.246C128.118 129.29 127.371 131.733 126.004 133.848C124.637 135.962 122.741 137.612 120.316 138.797C117.91 139.964 115.066 140.547 111.785 140.547C109.124 140.547 106.745 140.1 104.648 139.207C102.57 138.314 100.802 137.029 99.3438 135.352C97.9036 133.674 96.8008 131.642 96.0352 129.254C95.2878 126.866 94.9141 124.177 94.9141 121.188V119.027C94.9141 116.038 95.306 113.349 96.0898 110.961C96.8919 108.555 98.0221 106.513 99.4805 104.836C100.957 103.141 102.725 101.846 104.785 100.953C106.845 100.06 109.133 99.6133 111.648 99.6133C115.112 99.6133 118.038 100.233 120.426 101.473C122.814 102.712 124.664 104.417 125.977 106.586C127.289 108.737 128.064 111.189 128.301 113.941H118.73C118.694 112.447 118.439 111.198 117.965 110.195C117.491 109.174 116.743 108.409 115.723 107.898C114.702 107.388 113.344 107.133 111.648 107.133C110.464 107.133 109.434 107.352 108.559 107.789C107.684 108.227 106.954 108.919 106.371 109.867C105.788 110.815 105.35 112.046 105.059 113.559C104.785 115.053 104.648 116.858 104.648 118.973V121.188C104.648 123.302 104.776 125.107 105.031 126.602C105.286 128.096 105.697 129.318 106.262 130.266C106.827 131.214 107.556 131.915 108.449 132.371C109.361 132.809 110.473 133.027 111.785 133.027C113.243 133.027 114.474 132.799 115.477 132.344C116.479 131.87 117.254 131.159 117.801 130.211C118.348 129.245 118.639 128.014 118.676 126.52ZM147.715 132.562V120.367C147.715 119.529 147.596 118.809 147.359 118.207C147.122 117.605 146.749 117.141 146.238 116.812C145.728 116.466 145.044 116.293 144.188 116.293C143.495 116.293 142.902 116.411 142.41 116.648C141.918 116.885 141.544 117.241 141.289 117.715C141.034 118.189 140.906 118.79 140.906 119.52H131.691C131.691 118.152 131.992 116.885 132.594 115.719C133.214 114.534 134.089 113.504 135.219 112.629C136.367 111.754 137.734 111.079 139.32 110.605C140.924 110.113 142.711 109.867 144.68 109.867C147.031 109.867 149.128 110.259 150.969 111.043C152.828 111.827 154.296 113.003 155.371 114.57C156.447 116.12 156.984 118.07 156.984 120.422V132.535C156.984 134.467 157.094 135.935 157.312 136.938C157.531 137.922 157.841 138.788 158.242 139.535V140H149C148.562 139.089 148.234 137.977 148.016 136.664C147.815 135.333 147.715 133.966 147.715 132.562ZM148.836 121.926L148.891 126.848H144.816C143.96 126.848 143.23 126.966 142.629 127.203C142.046 127.44 141.572 127.768 141.207 128.188C140.861 128.589 140.605 129.044 140.441 129.555C140.296 130.065 140.223 130.603 140.223 131.168C140.223 131.715 140.35 132.207 140.605 132.645C140.879 133.064 141.243 133.392 141.699 133.629C142.155 133.866 142.665 133.984 143.23 133.984C144.251 133.984 145.117 133.793 145.828 133.41C146.557 133.009 147.113 132.526 147.496 131.961C147.879 131.396 148.07 130.867 148.07 130.375L150.094 134.148C149.729 134.878 149.31 135.616 148.836 136.363C148.38 137.111 147.806 137.803 147.113 138.441C146.439 139.061 145.609 139.572 144.625 139.973C143.641 140.355 142.447 140.547 141.043 140.547C139.22 140.547 137.543 140.173 136.012 139.426C134.499 138.678 133.286 137.639 132.375 136.309C131.464 134.96 131.008 133.41 131.008 131.66C131.008 130.129 131.281 128.762 131.828 127.559C132.393 126.355 133.241 125.335 134.371 124.496C135.501 123.658 136.941 123.02 138.691 122.582C140.441 122.145 142.501 121.926 144.871 121.926H148.836ZM179.105 133.219V98H188.375V140H180.062L179.105 133.219ZM160.949 125.562V124.988C160.949 122.746 161.195 120.704 161.688 118.863C162.18 117.004 162.909 115.409 163.875 114.078C164.841 112.729 166.044 111.69 167.484 110.961C168.924 110.232 170.583 109.867 172.461 109.867C174.138 109.867 175.605 110.259 176.863 111.043C178.121 111.809 179.197 112.884 180.09 114.27C180.983 115.655 181.712 117.277 182.277 119.137C182.842 120.978 183.271 122.965 183.562 125.098V125.781C183.271 127.786 182.842 129.682 182.277 131.469C181.712 133.237 180.983 134.805 180.09 136.172C179.197 137.539 178.112 138.615 176.836 139.398C175.578 140.164 174.102 140.547 172.406 140.547C170.529 140.547 168.87 140.173 167.43 139.426C166.008 138.678 164.814 137.63 163.848 136.281C162.9 134.932 162.18 133.346 161.688 131.523C161.195 129.701 160.949 127.714 160.949 125.562ZM170.164 124.988V125.562C170.164 126.674 170.237 127.704 170.383 128.652C170.529 129.6 170.775 130.439 171.121 131.168C171.486 131.879 171.96 132.435 172.543 132.836C173.145 133.237 173.883 133.438 174.758 133.438C175.943 133.438 176.918 133.155 177.684 132.59C178.467 132.025 179.042 131.223 179.406 130.184C179.789 129.145 179.953 127.923 179.898 126.52V124.359C179.935 123.156 179.853 122.099 179.652 121.188C179.452 120.258 179.133 119.483 178.695 118.863C178.276 118.243 177.738 117.779 177.082 117.469C176.444 117.141 175.688 116.977 174.812 116.977C173.956 116.977 173.227 117.177 172.625 117.578C172.042 117.979 171.568 118.544 171.203 119.273C170.839 119.984 170.574 120.832 170.41 121.816C170.246 122.783 170.164 123.84 170.164 124.988ZM207.926 140.547C205.52 140.547 203.368 140.173 201.473 139.426C199.577 138.66 197.973 137.612 196.66 136.281C195.366 134.951 194.372 133.419 193.68 131.688C193.005 129.956 192.668 128.124 192.668 126.191V125.152C192.668 122.983 192.969 120.978 193.57 119.137C194.172 117.277 195.065 115.655 196.25 114.27C197.435 112.884 198.921 111.809 200.707 111.043C202.493 110.259 204.572 109.867 206.941 109.867C209.038 109.867 210.915 110.204 212.574 110.879C214.233 111.553 215.637 112.52 216.785 113.777C217.952 115.035 218.836 116.557 219.438 118.344C220.057 120.13 220.367 122.135 220.367 124.359V128.105H196.195V122.336H211.371V121.625C211.389 120.641 211.216 119.802 210.852 119.109C210.505 118.417 209.995 117.888 209.32 117.523C208.646 117.159 207.826 116.977 206.859 116.977C205.857 116.977 205.027 117.195 204.371 117.633C203.733 118.07 203.232 118.672 202.867 119.438C202.521 120.185 202.275 121.051 202.129 122.035C201.983 123.02 201.91 124.059 201.91 125.152V126.191C201.91 127.285 202.056 128.279 202.348 129.172C202.658 130.065 203.095 130.831 203.66 131.469C204.243 132.089 204.936 132.572 205.738 132.918C206.559 133.264 207.488 133.438 208.527 133.438C209.785 133.438 211.025 133.201 212.246 132.727C213.467 132.253 214.516 131.469 215.391 130.375L219.574 135.352C218.973 136.208 218.116 137.038 217.004 137.84C215.91 138.642 214.598 139.298 213.066 139.809C211.535 140.301 209.822 140.547 207.926 140.547ZM233.164 116.73V140H223.949V110.414H232.59L233.164 116.73ZM232.07 124.195L229.91 124.25C229.91 121.99 230.184 119.975 230.73 118.207C231.277 116.421 232.052 114.908 233.055 113.668C234.057 112.428 235.251 111.49 236.637 110.852C238.04 110.195 239.599 109.867 241.312 109.867C242.68 109.867 243.928 110.068 245.059 110.469C246.207 110.87 247.191 111.517 248.012 112.41C248.85 113.303 249.488 114.488 249.926 115.965C250.382 117.423 250.609 119.228 250.609 121.379V140H241.34V121.352C241.34 120.167 241.176 119.264 240.848 118.645C240.52 118.007 240.046 117.569 239.426 117.332C238.806 117.095 238.049 116.977 237.156 116.977C236.208 116.977 235.406 117.159 234.75 117.523C234.094 117.888 233.565 118.398 233.164 119.055C232.781 119.693 232.499 120.449 232.316 121.324C232.152 122.199 232.07 123.156 232.07 124.195ZM268.219 133.438C269.076 133.438 269.805 133.283 270.406 132.973C271.026 132.645 271.491 132.189 271.801 131.605C272.129 131.004 272.284 130.284 272.266 129.445H280.934C280.952 131.669 280.405 133.62 279.293 135.297C278.199 136.956 276.704 138.25 274.809 139.18C272.931 140.091 270.807 140.547 268.438 140.547C266.122 140.547 264.099 140.173 262.367 139.426C260.635 138.66 259.186 137.603 258.02 136.254C256.871 134.887 256.005 133.292 255.422 131.469C254.857 129.646 254.574 127.668 254.574 125.535V124.906C254.574 122.773 254.857 120.796 255.422 118.973C256.005 117.132 256.871 115.536 258.02 114.188C259.186 112.82 260.626 111.763 262.34 111.016C264.072 110.25 266.086 109.867 268.383 109.867C270.844 109.867 273.013 110.332 274.891 111.262C276.786 112.191 278.272 113.54 279.348 115.309C280.423 117.077 280.952 119.219 280.934 121.734H272.266C272.284 120.841 272.147 120.039 271.855 119.328C271.564 118.617 271.108 118.052 270.488 117.633C269.887 117.195 269.112 116.977 268.164 116.977C267.216 116.977 266.451 117.186 265.867 117.605C265.284 118.025 264.837 118.608 264.527 119.355C264.236 120.085 264.035 120.923 263.926 121.871C263.835 122.819 263.789 123.831 263.789 124.906V125.535C263.789 126.629 263.835 127.659 263.926 128.625C264.035 129.573 264.245 130.411 264.555 131.141C264.865 131.852 265.311 132.417 265.895 132.836C266.478 133.237 267.253 133.438 268.219 133.438ZM299.199 140.547C296.793 140.547 294.642 140.173 292.746 139.426C290.85 138.66 289.246 137.612 287.934 136.281C286.639 134.951 285.646 133.419 284.953 131.688C284.279 129.956 283.941 128.124 283.941 126.191V125.152C283.941 122.983 284.242 120.978 284.844 119.137C285.445 117.277 286.339 115.655 287.523 114.27C288.708 112.884 290.194 111.809 291.98 111.043C293.767 110.259 295.845 109.867 298.215 109.867C300.311 109.867 302.189 110.204 303.848 110.879C305.507 111.553 306.91 112.52 308.059 113.777C309.225 115.035 310.109 116.557 310.711 118.344C311.331 120.13 311.641 122.135 311.641 124.359V128.105H287.469V122.336H302.645V121.625C302.663 120.641 302.49 119.802 302.125 119.109C301.779 118.417 301.268 117.888 300.594 117.523C299.919 117.159 299.099 116.977 298.133 116.977C297.13 116.977 296.301 117.195 295.645 117.633C295.007 118.07 294.505 118.672 294.141 119.438C293.794 120.185 293.548 121.051 293.402 122.035C293.257 123.02 293.184 124.059 293.184 125.152V126.191C293.184 127.285 293.329 128.279 293.621 129.172C293.931 130.065 294.368 130.831 294.934 131.469C295.517 132.089 296.21 132.572 297.012 132.918C297.832 133.264 298.762 133.438 299.801 133.438C301.059 133.438 302.298 133.201 303.52 132.727C304.741 132.253 305.789 131.469 306.664 130.375L310.848 135.352C310.246 136.208 309.389 137.038 308.277 137.84C307.184 138.642 305.871 139.298 304.34 139.809C302.809 140.301 301.095 140.547 299.199 140.547Z" fill="black"/>
<rect x="93" y="178" width="917" height="77" rx="10" fill="#D3D3D3"/>
<rect x="111" y="196" width="148" height="41" rx="3" fill="#424242"/>
<rect x="111" y="196" width="148" height="41" rx="3" stroke="#424242" stroke-width="4"/>
<path d="M134.234 210.203H139.271C140.255 210.203 141.11 210.35 141.837 210.643C142.563 210.936 143.123 211.369 143.516 211.943C143.914 212.518 144.113 213.227 144.113 214.07C144.113 214.803 143.999 215.415 143.771 215.907C143.542 216.399 143.223 216.807 142.812 217.129C142.408 217.445 141.937 217.706 141.397 217.911L140.387 218.482H136.159L136.142 216.101H139.271C139.663 216.101 139.988 216.03 140.246 215.89C140.504 215.749 140.697 215.55 140.826 215.292C140.961 215.028 141.028 214.715 141.028 214.352C141.028 213.982 140.961 213.666 140.826 213.402C140.691 213.139 140.492 212.937 140.229 212.796C139.971 212.655 139.651 212.585 139.271 212.585H137.319V223H134.234V210.203ZM141.239 223L138.409 217.34L141.679 217.322L144.544 222.868V223H141.239ZM150.441 223.176C149.668 223.176 148.977 223.056 148.367 222.815C147.758 222.569 147.242 222.232 146.82 221.805C146.404 221.377 146.085 220.885 145.862 220.328C145.646 219.771 145.537 219.183 145.537 218.562V218.228C145.537 217.53 145.634 216.886 145.827 216.294C146.021 215.696 146.308 215.175 146.688 214.729C147.069 214.284 147.547 213.938 148.121 213.692C148.695 213.44 149.363 213.314 150.125 213.314C150.799 213.314 151.402 213.423 151.936 213.64C152.469 213.856 152.92 214.167 153.289 214.571C153.664 214.976 153.948 215.465 154.142 216.039C154.341 216.613 154.44 217.258 154.44 217.973V219.177H146.671V217.322H151.549V217.094C151.555 216.777 151.499 216.508 151.382 216.285C151.271 216.062 151.106 215.893 150.89 215.775C150.673 215.658 150.409 215.6 150.099 215.6C149.776 215.6 149.51 215.67 149.299 215.811C149.094 215.951 148.933 216.145 148.815 216.391C148.704 216.631 148.625 216.909 148.578 217.226C148.531 217.542 148.508 217.876 148.508 218.228V218.562C148.508 218.913 148.555 219.232 148.648 219.52C148.748 219.807 148.889 220.053 149.07 220.258C149.258 220.457 149.48 220.612 149.738 220.724C150.002 220.835 150.301 220.891 150.635 220.891C151.039 220.891 151.438 220.814 151.83 220.662C152.223 220.51 152.56 220.258 152.841 219.906L154.186 221.506C153.992 221.781 153.717 222.048 153.359 222.306C153.008 222.563 152.586 222.774 152.094 222.938C151.602 223.097 151.051 223.176 150.441 223.176ZM160.584 220.609V216.689C160.584 216.42 160.546 216.188 160.47 215.995C160.394 215.802 160.273 215.652 160.109 215.547C159.945 215.436 159.726 215.38 159.45 215.38C159.228 215.38 159.037 215.418 158.879 215.494C158.721 215.57 158.601 215.685 158.519 215.837C158.437 215.989 158.396 216.183 158.396 216.417H155.434C155.434 215.978 155.53 215.57 155.724 215.195C155.923 214.814 156.204 214.483 156.567 214.202C156.937 213.921 157.376 213.704 157.886 213.552C158.401 213.394 158.976 213.314 159.608 213.314C160.364 213.314 161.038 213.44 161.63 213.692C162.228 213.944 162.699 214.322 163.045 214.826C163.391 215.324 163.563 215.951 163.563 216.707V220.601C163.563 221.222 163.599 221.693 163.669 222.016C163.739 222.332 163.839 222.61 163.968 222.851V223H160.997C160.856 222.707 160.751 222.35 160.681 221.928C160.616 221.5 160.584 221.061 160.584 220.609ZM160.944 217.19L160.962 218.772H159.652C159.377 218.772 159.143 218.811 158.949 218.887C158.762 218.963 158.609 219.068 158.492 219.203C158.381 219.332 158.299 219.479 158.246 219.643C158.199 219.807 158.176 219.979 158.176 220.161C158.176 220.337 158.217 220.495 158.299 220.636C158.387 220.771 158.504 220.876 158.65 220.952C158.797 221.028 158.961 221.066 159.143 221.066C159.471 221.066 159.749 221.005 159.978 220.882C160.212 220.753 160.391 220.598 160.514 220.416C160.637 220.234 160.698 220.064 160.698 219.906L161.349 221.119C161.231 221.354 161.097 221.591 160.944 221.831C160.798 222.071 160.613 222.294 160.391 222.499C160.174 222.698 159.907 222.862 159.591 222.991C159.274 223.114 158.891 223.176 158.439 223.176C157.854 223.176 157.314 223.056 156.822 222.815C156.336 222.575 155.946 222.241 155.653 221.813C155.36 221.38 155.214 220.882 155.214 220.319C155.214 219.827 155.302 219.388 155.478 219.001C155.659 218.614 155.932 218.286 156.295 218.017C156.658 217.747 157.121 217.542 157.684 217.401C158.246 217.261 158.908 217.19 159.67 217.19H160.944ZM169.224 220.891C169.499 220.891 169.733 220.841 169.927 220.741C170.126 220.636 170.275 220.489 170.375 220.302C170.48 220.108 170.53 219.877 170.524 219.607H173.311C173.316 220.322 173.141 220.949 172.783 221.488C172.432 222.021 171.951 222.438 171.342 222.736C170.738 223.029 170.056 223.176 169.294 223.176C168.55 223.176 167.899 223.056 167.343 222.815C166.786 222.569 166.32 222.229 165.945 221.796C165.576 221.356 165.298 220.844 165.11 220.258C164.929 219.672 164.838 219.036 164.838 218.351V218.148C164.838 217.463 164.929 216.827 165.11 216.241C165.298 215.649 165.576 215.137 165.945 214.703C166.32 214.264 166.783 213.924 167.334 213.684C167.891 213.438 168.538 213.314 169.276 213.314C170.067 213.314 170.765 213.464 171.368 213.763C171.978 214.062 172.455 214.495 172.801 215.063C173.146 215.632 173.316 216.32 173.311 217.129H170.524C170.53 216.842 170.486 216.584 170.393 216.355C170.299 216.127 170.152 215.945 169.953 215.811C169.76 215.67 169.511 215.6 169.206 215.6C168.901 215.6 168.655 215.667 168.468 215.802C168.28 215.937 168.137 216.124 168.037 216.364C167.943 216.599 167.879 216.868 167.844 217.173C167.814 217.478 167.8 217.803 167.8 218.148V218.351C167.8 218.702 167.814 219.033 167.844 219.344C167.879 219.648 167.946 219.918 168.046 220.152C168.146 220.381 168.289 220.562 168.477 220.697C168.664 220.826 168.913 220.891 169.224 220.891ZM179.586 213.49V215.547H173.855V213.49H179.586ZM175.06 211.126H178.021V219.897C178.021 220.149 178.051 220.346 178.109 220.486C178.168 220.621 178.268 220.718 178.408 220.776C178.555 220.829 178.748 220.855 178.988 220.855C179.158 220.855 179.299 220.853 179.41 220.847C179.521 220.835 179.627 220.82 179.727 220.803V222.921C179.475 223.003 179.211 223.064 178.936 223.105C178.66 223.152 178.367 223.176 178.057 223.176C177.424 223.176 176.882 223.076 176.431 222.877C175.985 222.678 175.646 222.364 175.411 221.937C175.177 221.509 175.06 220.952 175.06 220.267V211.126ZM196.074 210.203V223H192.998L188.472 215.037V223H185.387V210.203H188.472L192.998 218.166V210.203H196.074ZM202.824 220.609V216.689C202.824 216.42 202.786 216.188 202.71 215.995C202.634 215.802 202.514 215.652 202.35 215.547C202.186 215.436 201.966 215.38 201.69 215.38C201.468 215.38 201.277 215.418 201.119 215.494C200.961 215.57 200.841 215.685 200.759 215.837C200.677 215.989 200.636 216.183 200.636 216.417H197.674C197.674 215.978 197.771 215.57 197.964 215.195C198.163 214.814 198.444 214.483 198.808 214.202C199.177 213.921 199.616 213.704 200.126 213.552C200.642 213.394 201.216 213.314 201.849 213.314C202.604 213.314 203.278 213.44 203.87 213.692C204.468 213.944 204.939 214.322 205.285 214.826C205.631 215.324 205.804 215.951 205.804 216.707V220.601C205.804 221.222 205.839 221.693 205.909 222.016C205.979 222.332 206.079 222.61 206.208 222.851V223H203.237C203.097 222.707 202.991 222.35 202.921 221.928C202.856 221.5 202.824 221.061 202.824 220.609ZM203.185 217.19L203.202 218.772H201.893C201.617 218.772 201.383 218.811 201.189 218.887C201.002 218.963 200.85 219.068 200.732 219.203C200.621 219.332 200.539 219.479 200.486 219.643C200.439 219.807 200.416 219.979 200.416 220.161C200.416 220.337 200.457 220.495 200.539 220.636C200.627 220.771 200.744 220.876 200.891 220.952C201.037 221.028 201.201 221.066 201.383 221.066C201.711 221.066 201.989 221.005 202.218 220.882C202.452 220.753 202.631 220.598 202.754 220.416C202.877 220.234 202.938 220.064 202.938 219.906L203.589 221.119C203.472 221.354 203.337 221.591 203.185 221.831C203.038 222.071 202.854 222.294 202.631 222.499C202.414 222.698 202.147 222.862 201.831 222.991C201.515 223.114 201.131 223.176 200.68 223.176C200.094 223.176 199.555 223.056 199.062 222.815C198.576 222.575 198.187 222.241 197.894 221.813C197.601 221.38 197.454 220.882 197.454 220.319C197.454 219.827 197.542 219.388 197.718 219.001C197.899 218.614 198.172 218.286 198.535 218.017C198.898 217.747 199.361 217.542 199.924 217.401C200.486 217.261 201.148 217.19 201.91 217.19H203.185ZM212.457 213.49V215.547H206.727V213.49H212.457ZM207.931 211.126H210.893V219.897C210.893 220.149 210.922 220.346 210.98 220.486C211.039 220.621 211.139 220.718 211.279 220.776C211.426 220.829 211.619 220.855 211.859 220.855C212.029 220.855 212.17 220.853 212.281 220.847C212.393 220.835 212.498 220.82 212.598 220.803V222.921C212.346 223.003 212.082 223.064 211.807 223.105C211.531 223.152 211.238 223.176 210.928 223.176C210.295 223.176 209.753 223.076 209.302 222.877C208.856 222.678 208.517 222.364 208.282 221.937C208.048 221.509 207.931 220.952 207.931 220.267V211.126ZM216.764 213.49V223H213.793V213.49H216.764ZM213.617 211.038C213.617 210.616 213.77 210.271 214.074 210.001C214.379 209.731 214.774 209.597 215.261 209.597C215.747 209.597 216.143 209.731 216.447 210.001C216.752 210.271 216.904 210.616 216.904 211.038C216.904 211.46 216.752 211.806 216.447 212.075C216.143 212.345 215.747 212.479 215.261 212.479C214.774 212.479 214.379 212.345 214.074 212.075C213.77 211.806 213.617 211.46 213.617 211.038ZM222.02 220.97L223.892 213.49H227.012L223.9 223H222.055L222.02 220.97ZM220.912 213.49L222.758 220.97L222.74 223H220.886L217.783 213.49H220.912ZM232.373 223.176C231.6 223.176 230.908 223.056 230.299 222.815C229.689 222.569 229.174 222.232 228.752 221.805C228.336 221.377 228.017 220.885 227.794 220.328C227.577 219.771 227.469 219.183 227.469 218.562V218.228C227.469 217.53 227.565 216.886 227.759 216.294C227.952 215.696 228.239 215.175 228.62 214.729C229.001 214.284 229.479 213.938 230.053 213.692C230.627 213.44 231.295 213.314 232.057 213.314C232.73 213.314 233.334 213.423 233.867 213.64C234.4 213.856 234.852 214.167 235.221 214.571C235.596 214.976 235.88 215.465 236.073 216.039C236.272 216.613 236.372 217.258 236.372 217.973V219.177H228.603V217.322H233.48V217.094C233.486 216.777 233.431 216.508 233.313 216.285C233.202 216.062 233.038 215.893 232.821 215.775C232.604 215.658 232.341 215.6 232.03 215.6C231.708 215.6 231.441 215.67 231.23 215.811C231.025 215.951 230.864 216.145 230.747 216.391C230.636 216.631 230.557 216.909 230.51 217.226C230.463 217.542 230.439 217.876 230.439 218.228V218.562C230.439 218.913 230.486 219.232 230.58 219.52C230.68 219.807 230.82 220.053 231.002 220.258C231.189 220.457 231.412 220.612 231.67 220.724C231.934 220.835 232.232 220.891 232.566 220.891C232.971 220.891 233.369 220.814 233.762 220.662C234.154 220.51 234.491 220.258 234.772 219.906L236.117 221.506C235.924 221.781 235.648 222.048 235.291 222.306C234.939 222.563 234.518 222.774 234.025 222.938C233.533 223.097 232.982 223.176 232.373 223.176Z" fill="white"/>
<rect x="279" y="196" width="130" height="41" rx="3" fill="#424242"/>
<rect x="279" y="196" width="130" height="41" rx="3" stroke="#424242" stroke-width="4"/>
<path d="M310.883 220.627V223H304.062V220.627H310.883ZM305.161 210.203V223H302.076V210.203H305.161ZM310.004 215.283V217.577H304.062V215.283H310.004ZM310.909 210.203V212.585H304.062V210.203H310.909ZM314.521 213.49L315.857 216.109L317.237 213.49H320.313L317.817 218.122L320.445 223H317.343L315.857 220.188L314.381 223H311.278L313.906 218.122L311.419 213.49H314.521ZM324.277 215.318V226.656H321.315V213.49H324.075L324.277 215.318ZM330.113 218.131V218.315C330.113 219.007 330.034 219.648 329.876 220.24C329.718 220.832 329.483 221.348 329.173 221.787C328.862 222.227 328.476 222.569 328.013 222.815C327.556 223.056 327.025 223.176 326.422 223.176C325.854 223.176 325.364 223.05 324.954 222.798C324.544 222.546 324.201 222.197 323.926 221.752C323.65 221.307 323.428 220.797 323.258 220.223C323.088 219.648 322.953 219.042 322.854 218.403V218.166C322.953 217.48 323.088 216.845 323.258 216.259C323.428 215.667 323.65 215.151 323.926 214.712C324.201 214.272 324.541 213.93 324.945 213.684C325.355 213.438 325.845 213.314 326.413 213.314C327.017 213.314 327.547 213.429 328.004 213.657C328.467 213.886 328.854 214.214 329.164 214.642C329.48 215.063 329.718 215.57 329.876 216.162C330.034 216.754 330.113 217.41 330.113 218.131ZM327.151 218.315V218.131C327.151 217.762 327.125 217.425 327.072 217.12C327.02 216.81 326.935 216.54 326.817 216.312C326.706 216.083 326.557 215.907 326.369 215.784C326.182 215.661 325.95 215.6 325.675 215.6C325.358 215.6 325.092 215.649 324.875 215.749C324.664 215.843 324.494 215.989 324.365 216.188C324.242 216.382 324.154 216.625 324.102 216.918C324.055 217.205 324.034 217.542 324.04 217.929V218.649C324.028 219.095 324.072 219.487 324.172 219.827C324.271 220.161 324.444 220.422 324.69 220.609C324.937 220.797 325.271 220.891 325.692 220.891C325.974 220.891 326.208 220.826 326.396 220.697C326.583 220.562 326.732 220.378 326.844 220.144C326.955 219.903 327.034 219.628 327.081 219.317C327.128 219.007 327.151 218.673 327.151 218.315ZM334.42 215.846V223H331.458V213.49H334.227L334.42 215.846ZM337.232 213.42L337.18 216.171C337.062 216.159 336.904 216.145 336.705 216.127C336.506 216.109 336.339 216.101 336.204 216.101C335.858 216.101 335.56 216.142 335.308 216.224C335.062 216.3 334.856 216.417 334.692 216.575C334.534 216.728 334.417 216.921 334.341 217.155C334.271 217.39 334.238 217.662 334.244 217.973L333.708 217.621C333.708 216.982 333.77 216.402 333.893 215.881C334.021 215.354 334.203 214.899 334.438 214.519C334.672 214.132 334.956 213.836 335.29 213.631C335.624 213.42 335.999 213.314 336.415 213.314C336.562 213.314 336.705 213.323 336.846 213.341C336.992 213.358 337.121 213.385 337.232 213.42ZM342.682 223.176C341.908 223.176 341.217 223.056 340.607 222.815C339.998 222.569 339.482 222.232 339.061 221.805C338.645 221.377 338.325 220.885 338.103 220.328C337.886 219.771 337.777 219.183 337.777 218.562V218.228C337.777 217.53 337.874 216.886 338.067 216.294C338.261 215.696 338.548 215.175 338.929 214.729C339.31 214.284 339.787 213.938 340.361 213.692C340.936 213.44 341.604 213.314 342.365 213.314C343.039 213.314 343.643 213.423 344.176 213.64C344.709 213.856 345.16 214.167 345.529 214.571C345.904 214.976 346.188 215.465 346.382 216.039C346.581 216.613 346.681 217.258 346.681 217.973V219.177H338.911V217.322H343.789V217.094C343.795 216.777 343.739 216.508 343.622 216.285C343.511 216.062 343.347 215.893 343.13 215.775C342.913 215.658 342.649 215.6 342.339 215.6C342.017 215.6 341.75 215.67 341.539 215.811C341.334 215.951 341.173 216.145 341.056 216.391C340.944 216.631 340.865 216.909 340.818 217.226C340.771 217.542 340.748 217.876 340.748 218.228V218.562C340.748 218.913 340.795 219.232 340.889 219.52C340.988 219.807 341.129 220.053 341.311 220.258C341.498 220.457 341.721 220.612 341.979 220.724C342.242 220.835 342.541 220.891 342.875 220.891C343.279 220.891 343.678 220.814 344.07 220.662C344.463 220.51 344.8 220.258 345.081 219.906L346.426 221.506C346.232 221.781 345.957 222.048 345.6 222.306C345.248 222.563 344.826 222.774 344.334 222.938C343.842 223.097 343.291 223.176 342.682 223.176ZM352.868 220.328C352.868 220.164 352.812 220.023 352.701 219.906C352.596 219.783 352.408 219.672 352.139 219.572C351.869 219.467 351.491 219.361 351.005 219.256C350.542 219.156 350.105 219.024 349.695 218.86C349.291 218.696 348.937 218.497 348.632 218.263C348.327 218.028 348.087 217.75 347.911 217.428C347.741 217.105 347.656 216.736 347.656 216.32C347.656 215.916 347.741 215.535 347.911 215.178C348.087 214.814 348.342 214.495 348.676 214.22C349.016 213.938 349.429 213.719 349.915 213.561C350.401 213.396 350.955 213.314 351.576 213.314C352.432 213.314 353.17 213.446 353.791 213.71C354.412 213.968 354.89 214.331 355.224 214.8C355.563 215.263 355.733 215.799 355.733 216.408H352.771C352.771 216.168 352.73 215.963 352.648 215.793C352.572 215.623 352.446 215.494 352.271 215.406C352.095 215.312 351.86 215.266 351.567 215.266C351.362 215.266 351.175 215.304 351.005 215.38C350.841 215.456 350.709 215.562 350.609 215.696C350.51 215.831 350.46 215.989 350.46 216.171C350.46 216.3 350.489 216.417 350.548 216.522C350.612 216.622 350.709 216.716 350.838 216.804C350.967 216.886 351.131 216.962 351.33 217.032C351.529 217.097 351.77 217.155 352.051 217.208C352.689 217.325 353.287 217.492 353.844 217.709C354.4 217.926 354.852 218.233 355.197 218.632C355.549 219.03 355.725 219.566 355.725 220.24C355.725 220.662 355.628 221.052 355.435 221.409C355.241 221.761 354.963 222.071 354.6 222.341C354.236 222.604 353.8 222.81 353.29 222.956C352.78 223.103 352.206 223.176 351.567 223.176C350.659 223.176 349.892 223.015 349.265 222.692C348.638 222.364 348.163 221.954 347.841 221.462C347.524 220.964 347.366 220.46 347.366 219.95H350.126C350.138 220.243 350.208 220.483 350.337 220.671C350.472 220.858 350.65 220.996 350.873 221.084C351.096 221.172 351.354 221.216 351.646 221.216C351.916 221.216 352.139 221.178 352.314 221.102C352.496 221.025 352.634 220.923 352.728 220.794C352.821 220.659 352.868 220.504 352.868 220.328ZM362.097 220.328C362.097 220.164 362.041 220.023 361.93 219.906C361.824 219.783 361.637 219.672 361.367 219.572C361.098 219.467 360.72 219.361 360.233 219.256C359.771 219.156 359.334 219.024 358.924 218.86C358.52 218.696 358.165 218.497 357.86 218.263C357.556 218.028 357.315 217.75 357.14 217.428C356.97 217.105 356.885 216.736 356.885 216.32C356.885 215.916 356.97 215.535 357.14 215.178C357.315 214.814 357.57 214.495 357.904 214.22C358.244 213.938 358.657 213.719 359.144 213.561C359.63 213.396 360.184 213.314 360.805 213.314C361.66 213.314 362.398 213.446 363.02 213.71C363.641 213.968 364.118 214.331 364.452 214.8C364.792 215.263 364.962 215.799 364.962 216.408H362C362 216.168 361.959 215.963 361.877 215.793C361.801 215.623 361.675 215.494 361.499 215.406C361.323 215.312 361.089 215.266 360.796 215.266C360.591 215.266 360.403 215.304 360.233 215.38C360.069 215.456 359.938 215.562 359.838 215.696C359.738 215.831 359.688 215.989 359.688 216.171C359.688 216.3 359.718 216.417 359.776 216.522C359.841 216.622 359.938 216.716 360.066 216.804C360.195 216.886 360.359 216.962 360.559 217.032C360.758 217.097 360.998 217.155 361.279 217.208C361.918 217.325 362.516 217.492 363.072 217.709C363.629 217.926 364.08 218.233 364.426 218.632C364.777 219.03 364.953 219.566 364.953 220.24C364.953 220.662 364.856 221.052 364.663 221.409C364.47 221.761 364.191 222.071 363.828 222.341C363.465 222.604 363.028 222.81 362.519 222.956C362.009 223.103 361.435 223.176 360.796 223.176C359.888 223.176 359.12 223.015 358.493 222.692C357.866 222.364 357.392 221.954 357.069 221.462C356.753 220.964 356.595 220.46 356.595 219.95H359.354C359.366 220.243 359.437 220.483 359.565 220.671C359.7 220.858 359.879 220.996 360.102 221.084C360.324 221.172 360.582 221.216 360.875 221.216C361.145 221.216 361.367 221.178 361.543 221.102C361.725 221.025 361.862 220.923 361.956 220.794C362.05 220.659 362.097 220.504 362.097 220.328ZM371.571 218.983V210.203H374.647V218.983C374.647 219.839 374.451 220.58 374.059 221.207C373.672 221.834 373.145 222.32 372.477 222.666C371.814 223.006 371.07 223.176 370.244 223.176C369.389 223.176 368.627 223.032 367.959 222.745C367.297 222.458 366.775 222.016 366.395 221.418C366.02 220.82 365.832 220.059 365.832 219.133H368.926C368.926 219.566 368.976 219.906 369.075 220.152C369.175 220.393 369.321 220.562 369.515 220.662C369.714 220.756 369.957 220.803 370.244 220.803C370.525 220.803 370.763 220.732 370.956 220.592C371.155 220.445 371.308 220.237 371.413 219.968C371.519 219.692 371.571 219.364 371.571 218.983ZM383.199 219.599C383.199 219.399 383.17 219.221 383.111 219.062C383.053 218.898 382.944 218.746 382.786 218.605C382.628 218.465 382.399 218.324 382.101 218.184C381.808 218.037 381.421 217.885 380.94 217.727C380.378 217.539 379.836 217.328 379.314 217.094C378.793 216.854 378.327 216.575 377.917 216.259C377.507 215.937 377.182 215.562 376.941 215.134C376.701 214.7 376.581 214.196 376.581 213.622C376.581 213.071 376.704 212.576 376.95 212.137C377.196 211.691 377.539 211.313 377.979 211.003C378.424 210.687 378.945 210.446 379.543 210.282C380.141 210.112 380.794 210.027 381.503 210.027C382.44 210.027 383.267 210.191 383.981 210.52C384.702 210.842 385.265 211.302 385.669 211.899C386.079 212.491 386.284 213.191 386.284 214H383.217C383.217 213.678 383.149 213.394 383.015 213.147C382.886 212.901 382.689 212.708 382.426 212.567C382.162 212.427 381.831 212.356 381.433 212.356C381.046 212.356 380.721 212.415 380.457 212.532C380.193 212.649 379.994 212.808 379.859 213.007C379.725 213.2 379.657 213.414 379.657 213.648C379.657 213.842 379.71 214.018 379.815 214.176C379.927 214.328 380.082 214.472 380.281 214.606C380.486 214.741 380.732 214.87 381.02 214.993C381.312 215.116 381.641 215.236 382.004 215.354C382.684 215.57 383.287 215.813 383.814 216.083C384.348 216.347 384.796 216.648 385.159 216.988C385.528 217.322 385.807 217.703 385.994 218.131C386.188 218.559 386.284 219.042 386.284 219.581C386.284 220.155 386.173 220.665 385.95 221.11C385.728 221.556 385.408 221.934 384.992 222.244C384.576 222.549 384.078 222.78 383.498 222.938C382.918 223.097 382.271 223.176 381.556 223.176C380.899 223.176 380.252 223.094 379.613 222.93C378.98 222.76 378.406 222.502 377.891 222.156C377.375 221.805 376.962 221.356 376.651 220.812C376.347 220.261 376.194 219.607 376.194 218.852H379.288C379.288 219.227 379.338 219.543 379.438 219.801C379.537 220.059 379.684 220.267 379.877 220.425C380.07 220.577 380.308 220.688 380.589 220.759C380.87 220.823 381.192 220.855 381.556 220.855C381.948 220.855 382.265 220.8 382.505 220.688C382.745 220.571 382.921 220.419 383.032 220.231C383.144 220.038 383.199 219.827 383.199 219.599Z" fill="white"/>
<rect x="429" y="196" width="109" height="41" rx="3" fill="#424242"/>
<rect x="429" y="196" width="109" height="41" rx="3" stroke="#424242" stroke-width="4"/>
<path d="M463.118 210.203V223H460.042L455.516 215.037V223H452.431V210.203H455.516L460.042 218.166V210.203H463.118ZM464.56 218.342V218.157C464.56 217.46 464.659 216.818 464.858 216.232C465.058 215.641 465.351 215.128 465.737 214.694C466.124 214.261 466.602 213.924 467.17 213.684C467.738 213.438 468.395 213.314 469.139 213.314C469.889 213.314 470.548 213.438 471.116 213.684C471.69 213.924 472.171 214.261 472.558 214.694C472.944 215.128 473.237 215.641 473.437 216.232C473.636 216.818 473.735 217.46 473.735 218.157V218.342C473.735 219.033 473.636 219.675 473.437 220.267C473.237 220.853 472.944 221.365 472.558 221.805C472.171 222.238 471.693 222.575 471.125 222.815C470.557 223.056 469.9 223.176 469.156 223.176C468.412 223.176 467.753 223.056 467.179 222.815C466.604 222.575 466.124 222.238 465.737 221.805C465.351 221.365 465.058 220.853 464.858 220.267C464.659 219.675 464.56 219.033 464.56 218.342ZM467.521 218.157V218.342C467.521 218.699 467.548 219.033 467.601 219.344C467.653 219.654 467.741 219.927 467.864 220.161C467.987 220.39 468.154 220.568 468.365 220.697C468.576 220.826 468.84 220.891 469.156 220.891C469.467 220.891 469.725 220.826 469.93 220.697C470.141 220.568 470.308 220.39 470.431 220.161C470.554 219.927 470.642 219.654 470.694 219.344C470.747 219.033 470.773 218.699 470.773 218.342V218.157C470.773 217.812 470.747 217.486 470.694 217.182C470.642 216.871 470.554 216.599 470.431 216.364C470.308 216.124 470.141 215.937 469.93 215.802C469.719 215.667 469.455 215.6 469.139 215.6C468.828 215.6 468.567 215.667 468.356 215.802C468.151 215.937 467.987 216.124 467.864 216.364C467.741 216.599 467.653 216.871 467.601 217.182C467.548 217.486 467.521 217.812 467.521 218.157ZM480.521 220.82V209.5H483.5V223H480.828L480.521 220.82ZM474.685 218.359V218.175C474.685 217.454 474.764 216.798 474.922 216.206C475.08 215.608 475.314 215.096 475.625 214.668C475.936 214.234 476.322 213.9 476.785 213.666C477.248 213.432 477.781 213.314 478.385 213.314C478.924 213.314 479.396 213.44 479.8 213.692C480.204 213.938 480.55 214.284 480.837 214.729C481.124 215.175 481.358 215.696 481.54 216.294C481.722 216.886 481.859 217.524 481.953 218.21V218.43C481.859 219.074 481.722 219.684 481.54 220.258C481.358 220.826 481.124 221.33 480.837 221.77C480.55 222.209 480.201 222.555 479.791 222.807C479.387 223.053 478.912 223.176 478.367 223.176C477.764 223.176 477.23 223.056 476.768 222.815C476.311 222.575 475.927 222.238 475.616 221.805C475.312 221.371 475.08 220.861 474.922 220.275C474.764 219.689 474.685 219.051 474.685 218.359ZM477.646 218.175V218.359C477.646 218.717 477.67 219.048 477.717 219.353C477.764 219.657 477.843 219.927 477.954 220.161C478.071 220.39 478.224 220.568 478.411 220.697C478.604 220.826 478.842 220.891 479.123 220.891C479.504 220.891 479.817 220.8 480.063 220.618C480.315 220.437 480.5 220.179 480.617 219.845C480.74 219.511 480.793 219.118 480.775 218.667V217.973C480.787 217.586 480.761 217.246 480.696 216.953C480.632 216.654 480.529 216.405 480.389 216.206C480.254 216.007 480.081 215.857 479.87 215.758C479.665 215.652 479.422 215.6 479.141 215.6C478.865 215.6 478.631 215.664 478.438 215.793C478.25 215.922 478.098 216.104 477.98 216.338C477.863 216.566 477.778 216.839 477.726 217.155C477.673 217.466 477.646 217.806 477.646 218.175ZM489.784 223.176C489.011 223.176 488.319 223.056 487.71 222.815C487.101 222.569 486.585 222.232 486.163 221.805C485.747 221.377 485.428 220.885 485.205 220.328C484.988 219.771 484.88 219.183 484.88 218.562V218.228C484.88 217.53 484.977 216.886 485.17 216.294C485.363 215.696 485.65 215.175 486.031 214.729C486.412 214.284 486.89 213.938 487.464 213.692C488.038 213.44 488.706 213.314 489.468 213.314C490.142 213.314 490.745 213.423 491.278 213.64C491.812 213.856 492.263 214.167 492.632 214.571C493.007 214.976 493.291 215.465 493.484 216.039C493.684 216.613 493.783 217.258 493.783 217.973V219.177H486.014V217.322H490.892V217.094C490.897 216.777 490.842 216.508 490.725 216.285C490.613 216.062 490.449 215.893 490.232 215.775C490.016 215.658 489.752 215.6 489.441 215.6C489.119 215.6 488.853 215.67 488.642 215.811C488.437 215.951 488.275 216.145 488.158 216.391C488.047 216.631 487.968 216.909 487.921 217.226C487.874 217.542 487.851 217.876 487.851 218.228V218.562C487.851 218.913 487.897 219.232 487.991 219.52C488.091 219.807 488.231 220.053 488.413 220.258C488.601 220.457 488.823 220.612 489.081 220.724C489.345 220.835 489.644 220.891 489.978 220.891C490.382 220.891 490.78 220.814 491.173 220.662C491.565 220.51 491.902 220.258 492.184 219.906L493.528 221.506C493.335 221.781 493.06 222.048 492.702 222.306C492.351 222.563 491.929 222.774 491.437 222.938C490.944 223.097 490.394 223.176 489.784 223.176ZM500.217 218.983V210.203H503.293V218.983C503.293 219.839 503.097 220.58 502.704 221.207C502.317 221.834 501.79 222.32 501.122 222.666C500.46 223.006 499.716 223.176 498.89 223.176C498.034 223.176 497.272 223.032 496.604 222.745C495.942 222.458 495.421 222.016 495.04 221.418C494.665 220.82 494.478 220.059 494.478 219.133H497.571C497.571 219.566 497.621 219.906 497.721 220.152C497.82 220.393 497.967 220.562 498.16 220.662C498.359 220.756 498.603 220.803 498.89 220.803C499.171 220.803 499.408 220.732 499.602 220.592C499.801 220.445 499.953 220.237 500.059 219.968C500.164 219.692 500.217 219.364 500.217 218.983ZM511.845 219.599C511.845 219.399 511.815 219.221 511.757 219.062C511.698 218.898 511.59 218.746 511.432 218.605C511.273 218.465 511.045 218.324 510.746 218.184C510.453 218.037 510.066 217.885 509.586 217.727C509.023 217.539 508.481 217.328 507.96 217.094C507.438 216.854 506.973 216.575 506.562 216.259C506.152 215.937 505.827 215.562 505.587 215.134C505.347 214.7 505.227 214.196 505.227 213.622C505.227 213.071 505.35 212.576 505.596 212.137C505.842 211.691 506.185 211.313 506.624 211.003C507.069 210.687 507.591 210.446 508.188 210.282C508.786 210.112 509.439 210.027 510.148 210.027C511.086 210.027 511.912 210.191 512.627 210.52C513.348 210.842 513.91 211.302 514.314 211.899C514.725 212.491 514.93 213.191 514.93 214H511.862C511.862 213.678 511.795 213.394 511.66 213.147C511.531 212.901 511.335 212.708 511.071 212.567C510.808 212.427 510.477 212.356 510.078 212.356C509.691 212.356 509.366 212.415 509.103 212.532C508.839 212.649 508.64 212.808 508.505 213.007C508.37 213.2 508.303 213.414 508.303 213.648C508.303 213.842 508.355 214.018 508.461 214.176C508.572 214.328 508.728 214.472 508.927 214.606C509.132 214.741 509.378 214.87 509.665 214.993C509.958 215.116 510.286 215.236 510.649 215.354C511.329 215.57 511.933 215.813 512.46 216.083C512.993 216.347 513.441 216.648 513.805 216.988C514.174 217.322 514.452 217.703 514.64 218.131C514.833 218.559 514.93 219.042 514.93 219.581C514.93 220.155 514.818 220.665 514.596 221.11C514.373 221.556 514.054 221.934 513.638 222.244C513.222 222.549 512.724 222.78 512.144 222.938C511.563 223.097 510.916 223.176 510.201 223.176C509.545 223.176 508.897 223.094 508.259 222.93C507.626 222.76 507.052 222.502 506.536 222.156C506.021 221.805 505.607 221.356 505.297 220.812C504.992 220.261 504.84 219.607 504.84 218.852H507.934C507.934 219.227 507.983 219.543 508.083 219.801C508.183 220.059 508.329 220.267 508.522 220.425C508.716 220.577 508.953 220.688 509.234 220.759C509.516 220.823 509.838 220.855 510.201 220.855C510.594 220.855 510.91 220.8 511.15 220.688C511.391 220.571 511.566 220.419 511.678 220.231C511.789 220.038 511.845 219.827 511.845 219.599Z" fill="white"/>
<rect x="558" y="196" width="154" height="41" rx="3" fill="#424242"/>
<rect x="558" y="196" width="154" height="41" rx="3" stroke="#424242" stroke-width="4"/>
<path d="M582.644 210.203H585.157L588.014 219.106L590.87 210.203H593.384L589.033 223H586.994L582.644 210.203ZM581.114 210.203H583.716L584.199 220.012V223H581.114V210.203ZM592.312 210.203H594.922V223H591.828V220.012L592.312 210.203ZM601.698 220.609V216.689C601.698 216.42 601.66 216.188 601.584 215.995C601.508 215.802 601.388 215.652 601.224 215.547C601.06 215.436 600.84 215.38 600.564 215.38C600.342 215.38 600.151 215.418 599.993 215.494C599.835 215.57 599.715 215.685 599.633 215.837C599.551 215.989 599.51 216.183 599.51 216.417H596.548C596.548 215.978 596.645 215.57 596.838 215.195C597.037 214.814 597.318 214.483 597.682 214.202C598.051 213.921 598.49 213.704 599 213.552C599.516 213.394 600.09 213.314 600.723 213.314C601.479 213.314 602.152 213.44 602.744 213.692C603.342 213.944 603.813 214.322 604.159 214.826C604.505 215.324 604.678 215.951 604.678 216.707V220.601C604.678 221.222 604.713 221.693 604.783 222.016C604.854 222.332 604.953 222.61 605.082 222.851V223H602.111C601.971 222.707 601.865 222.35 601.795 221.928C601.73 221.5 601.698 221.061 601.698 220.609ZM602.059 217.19L602.076 218.772H600.767C600.491 218.772 600.257 218.811 600.063 218.887C599.876 218.963 599.724 219.068 599.606 219.203C599.495 219.332 599.413 219.479 599.36 219.643C599.313 219.807 599.29 219.979 599.29 220.161C599.29 220.337 599.331 220.495 599.413 220.636C599.501 220.771 599.618 220.876 599.765 220.952C599.911 221.028 600.075 221.066 600.257 221.066C600.585 221.066 600.863 221.005 601.092 220.882C601.326 220.753 601.505 220.598 601.628 220.416C601.751 220.234 601.812 220.064 601.812 219.906L602.463 221.119C602.346 221.354 602.211 221.591 602.059 221.831C601.912 222.071 601.728 222.294 601.505 222.499C601.288 222.698 601.021 222.862 600.705 222.991C600.389 223.114 600.005 223.176 599.554 223.176C598.968 223.176 598.429 223.056 597.937 222.815C597.45 222.575 597.061 222.241 596.768 221.813C596.475 221.38 596.328 220.882 596.328 220.319C596.328 219.827 596.416 219.388 596.592 219.001C596.773 218.614 597.046 218.286 597.409 218.017C597.772 217.747 598.235 217.542 598.798 217.401C599.36 217.261 600.022 217.19 600.784 217.19H602.059ZM609.31 215.318V226.656H606.348V213.49H609.107L609.31 215.318ZM615.146 218.131V218.315C615.146 219.007 615.066 219.648 614.908 220.24C614.75 220.832 614.516 221.348 614.205 221.787C613.895 222.227 613.508 222.569 613.045 222.815C612.588 223.056 612.058 223.176 611.454 223.176C610.886 223.176 610.396 223.05 609.986 222.798C609.576 222.546 609.233 222.197 608.958 221.752C608.683 221.307 608.46 220.797 608.29 220.223C608.12 219.648 607.985 219.042 607.886 218.403V218.166C607.985 217.48 608.12 216.845 608.29 216.259C608.46 215.667 608.683 215.151 608.958 214.712C609.233 214.272 609.573 213.93 609.978 213.684C610.388 213.438 610.877 213.314 611.445 213.314C612.049 213.314 612.579 213.429 613.036 213.657C613.499 213.886 613.886 214.214 614.196 214.642C614.513 215.063 614.75 215.57 614.908 216.162C615.066 216.754 615.146 217.41 615.146 218.131ZM612.184 218.315V218.131C612.184 217.762 612.157 217.425 612.104 217.12C612.052 216.81 611.967 216.54 611.85 216.312C611.738 216.083 611.589 215.907 611.401 215.784C611.214 215.661 610.982 215.6 610.707 215.6C610.391 215.6 610.124 215.649 609.907 215.749C609.696 215.843 609.526 215.989 609.397 216.188C609.274 216.382 609.187 216.625 609.134 216.918C609.087 217.205 609.066 217.542 609.072 217.929V218.649C609.061 219.095 609.104 219.487 609.204 219.827C609.304 220.161 609.477 220.422 609.723 220.609C609.969 220.797 610.303 220.891 610.725 220.891C611.006 220.891 611.24 220.826 611.428 220.697C611.615 220.562 611.765 220.378 611.876 220.144C611.987 219.903 612.066 219.628 612.113 219.317C612.16 219.007 612.184 218.673 612.184 218.315ZM626.308 217.56H623.012L622.994 215.538H625.666C626.146 215.538 626.53 215.485 626.817 215.38C627.104 215.269 627.312 215.107 627.441 214.896C627.576 214.686 627.644 214.422 627.644 214.105C627.644 213.742 627.576 213.449 627.441 213.227C627.307 213.004 627.093 212.843 626.8 212.743C626.513 212.638 626.141 212.585 625.684 212.585H624.172V223H621.087V210.203H625.684C626.475 210.203 627.181 210.276 627.802 210.423C628.423 210.563 628.95 210.78 629.384 211.073C629.823 211.366 630.157 211.735 630.386 212.181C630.614 212.62 630.729 213.139 630.729 213.736C630.729 214.258 630.617 214.747 630.395 215.204C630.172 215.661 629.8 216.033 629.278 216.32C628.763 216.602 628.057 216.748 627.16 216.76L626.308 217.56ZM626.185 223H622.265L623.319 220.627H626.185C626.606 220.627 626.943 220.562 627.195 220.434C627.453 220.299 627.638 220.123 627.749 219.906C627.866 219.684 627.925 219.438 627.925 219.168C627.925 218.84 627.869 218.556 627.758 218.315C627.652 218.075 627.482 217.891 627.248 217.762C627.014 217.627 626.7 217.56 626.308 217.56H623.715L623.732 215.538H626.835L627.556 216.347C628.411 216.312 629.088 216.432 629.586 216.707C630.09 216.982 630.45 217.346 630.667 217.797C630.884 218.248 630.992 218.72 630.992 219.212C630.992 220.05 630.811 220.75 630.447 221.312C630.09 221.875 629.554 222.297 628.839 222.578C628.124 222.859 627.239 223 626.185 223ZM632.196 218.342V218.157C632.196 217.46 632.296 216.818 632.495 216.232C632.694 215.641 632.987 215.128 633.374 214.694C633.761 214.261 634.238 213.924 634.807 213.684C635.375 213.438 636.031 213.314 636.775 213.314C637.525 213.314 638.185 213.438 638.753 213.684C639.327 213.924 639.808 214.261 640.194 214.694C640.581 215.128 640.874 215.641 641.073 216.232C641.272 216.818 641.372 217.46 641.372 218.157V218.342C641.372 219.033 641.272 219.675 641.073 220.267C640.874 220.853 640.581 221.365 640.194 221.805C639.808 222.238 639.33 222.575 638.762 222.815C638.193 223.056 637.537 223.176 636.793 223.176C636.049 223.176 635.39 223.056 634.815 222.815C634.241 222.575 633.761 222.238 633.374 221.805C632.987 221.365 632.694 220.853 632.495 220.267C632.296 219.675 632.196 219.033 632.196 218.342ZM635.158 218.157V218.342C635.158 218.699 635.185 219.033 635.237 219.344C635.29 219.654 635.378 219.927 635.501 220.161C635.624 220.39 635.791 220.568 636.002 220.697C636.213 220.826 636.477 220.891 636.793 220.891C637.104 220.891 637.361 220.826 637.566 220.697C637.777 220.568 637.944 220.39 638.067 220.161C638.19 219.927 638.278 219.654 638.331 219.344C638.384 219.033 638.41 218.699 638.41 218.342V218.157C638.41 217.812 638.384 217.486 638.331 217.182C638.278 216.871 638.19 216.599 638.067 216.364C637.944 216.124 637.777 215.937 637.566 215.802C637.355 215.667 637.092 215.6 636.775 215.6C636.465 215.6 636.204 215.667 635.993 215.802C635.788 215.937 635.624 216.124 635.501 216.364C635.378 216.599 635.29 216.871 635.237 217.182C635.185 217.486 635.158 217.812 635.158 218.157ZM645.011 213.49L646.347 216.109L647.727 213.49H650.803L648.307 218.122L650.935 223H647.832L646.347 220.188L644.87 223H641.768L644.396 218.122L641.908 213.49H645.011ZM662.993 219.599C662.993 219.399 662.964 219.221 662.905 219.062C662.847 218.898 662.738 218.746 662.58 218.605C662.422 218.465 662.193 218.324 661.895 218.184C661.602 218.037 661.215 217.885 660.734 217.727C660.172 217.539 659.63 217.328 659.108 217.094C658.587 216.854 658.121 216.575 657.711 216.259C657.301 215.937 656.976 215.562 656.735 215.134C656.495 214.7 656.375 214.196 656.375 213.622C656.375 213.071 656.498 212.576 656.744 212.137C656.99 211.691 657.333 211.313 657.772 211.003C658.218 210.687 658.739 210.446 659.337 210.282C659.935 210.112 660.588 210.027 661.297 210.027C662.234 210.027 663.061 210.191 663.775 210.52C664.496 210.842 665.059 211.302 665.463 211.899C665.873 212.491 666.078 213.191 666.078 214H663.011C663.011 213.678 662.943 213.394 662.809 213.147C662.68 212.901 662.483 212.708 662.22 212.567C661.956 212.427 661.625 212.356 661.227 212.356C660.84 212.356 660.515 212.415 660.251 212.532C659.987 212.649 659.788 212.808 659.653 213.007C659.519 213.2 659.451 213.414 659.451 213.648C659.451 213.842 659.504 214.018 659.609 214.176C659.721 214.328 659.876 214.472 660.075 214.606C660.28 214.741 660.526 214.87 660.813 214.993C661.106 215.116 661.435 215.236 661.798 215.354C662.478 215.57 663.081 215.813 663.608 216.083C664.142 216.347 664.59 216.648 664.953 216.988C665.322 217.322 665.601 217.703 665.788 218.131C665.981 218.559 666.078 219.042 666.078 219.581C666.078 220.155 665.967 220.665 665.744 221.11C665.521 221.556 665.202 221.934 664.786 222.244C664.37 222.549 663.872 222.78 663.292 222.938C662.712 223.097 662.064 223.176 661.35 223.176C660.693 223.176 660.046 223.094 659.407 222.93C658.774 222.76 658.2 222.502 657.685 222.156C657.169 221.805 656.756 221.356 656.445 220.812C656.141 220.261 655.988 219.607 655.988 218.852H659.082C659.082 219.227 659.132 219.543 659.231 219.801C659.331 220.059 659.478 220.267 659.671 220.425C659.864 220.577 660.102 220.688 660.383 220.759C660.664 220.823 660.986 220.855 661.35 220.855C661.742 220.855 662.059 220.8 662.299 220.688C662.539 220.571 662.715 220.419 662.826 220.231C662.938 220.038 662.993 219.827 662.993 219.599ZM671.826 223H668.987L669.005 220.627H671.826C672.412 220.627 672.907 220.486 673.312 220.205C673.722 219.924 674.032 219.505 674.243 218.948C674.46 218.386 674.568 217.694 674.568 216.874V216.32C674.568 215.705 674.507 215.166 674.384 214.703C674.267 214.234 674.091 213.845 673.856 213.534C673.622 213.218 673.329 212.98 672.978 212.822C672.632 212.664 672.233 212.585 671.782 212.585H668.935V210.203H671.782C672.649 210.203 673.443 210.353 674.164 210.651C674.891 210.944 675.518 211.366 676.045 211.917C676.578 212.462 676.988 213.109 677.275 213.859C677.568 214.604 677.715 215.43 677.715 216.338V216.874C677.715 217.776 677.568 218.603 677.275 219.353C676.988 220.103 676.581 220.75 676.054 221.295C675.526 221.84 674.902 222.262 674.182 222.561C673.467 222.854 672.682 223 671.826 223ZM670.754 210.203V223H667.669V210.203H670.754ZM682.408 210.203V223H679.323V210.203H682.408ZM690.046 210.203L685.089 216.689L682.188 219.862L681.626 217.032L683.48 214.22L686.24 210.203H690.046ZM686.398 223L683.094 217.234L685.493 215.468L690.046 223H686.398Z" fill="white"/>
<rect x="732" y="196" width="131" height="41" rx="3" fill="#424242"/>
<rect x="732" y="196" width="131" height="41" rx="3" stroke="#424242" stroke-width="4"/>
<path d="M761.359 210.203V223H758.274V210.203H761.359ZM765.209 210.203V212.585H754.513V210.203H765.209ZM768.575 221.884L771.036 213.49H774.218L770.395 224.415C770.312 224.655 770.204 224.913 770.069 225.188C769.935 225.47 769.75 225.736 769.516 225.988C769.281 226.24 768.979 226.445 768.61 226.604C768.247 226.762 767.796 226.841 767.257 226.841C766.97 226.841 766.759 226.826 766.624 226.797C766.495 226.773 766.296 226.729 766.026 226.665V224.547C766.103 224.547 766.167 224.547 766.22 224.547C766.278 224.547 766.343 224.547 766.413 224.547C766.729 224.547 766.981 224.515 767.169 224.45C767.362 224.386 767.509 224.292 767.608 224.169C767.714 224.046 767.796 223.896 767.854 223.721L768.575 221.884ZM767.951 213.49L769.823 220.144L770.148 223.281H768.162L764.778 213.49H767.951ZM777.979 215.318V226.656H775.018V213.49H777.777L777.979 215.318ZM783.815 218.131V218.315C783.815 219.007 783.736 219.648 783.578 220.24C783.42 220.832 783.186 221.348 782.875 221.787C782.564 222.227 782.178 222.569 781.715 222.815C781.258 223.056 780.728 223.176 780.124 223.176C779.556 223.176 779.066 223.05 778.656 222.798C778.246 222.546 777.903 222.197 777.628 221.752C777.353 221.307 777.13 220.797 776.96 220.223C776.79 219.648 776.655 219.042 776.556 218.403V218.166C776.655 217.48 776.79 216.845 776.96 216.259C777.13 215.667 777.353 215.151 777.628 214.712C777.903 214.272 778.243 213.93 778.647 213.684C779.058 213.438 779.547 213.314 780.115 213.314C780.719 213.314 781.249 213.429 781.706 213.657C782.169 213.886 782.556 214.214 782.866 214.642C783.183 215.063 783.42 215.57 783.578 216.162C783.736 216.754 783.815 217.41 783.815 218.131ZM780.854 218.315V218.131C780.854 217.762 780.827 217.425 780.774 217.12C780.722 216.81 780.637 216.54 780.52 216.312C780.408 216.083 780.259 215.907 780.071 215.784C779.884 215.661 779.652 215.6 779.377 215.6C779.061 215.6 778.794 215.649 778.577 215.749C778.366 215.843 778.196 215.989 778.067 216.188C777.944 216.382 777.856 216.625 777.804 216.918C777.757 217.205 777.736 217.542 777.742 217.929V218.649C777.73 219.095 777.774 219.487 777.874 219.827C777.974 220.161 778.146 220.422 778.393 220.609C778.639 220.797 778.973 220.891 779.395 220.891C779.676 220.891 779.91 220.826 780.098 220.697C780.285 220.562 780.435 220.378 780.546 220.144C780.657 219.903 780.736 219.628 780.783 219.317C780.83 219.007 780.854 218.673 780.854 218.315ZM789.739 223.176C788.966 223.176 788.274 223.056 787.665 222.815C787.056 222.569 786.54 222.232 786.118 221.805C785.702 221.377 785.383 220.885 785.16 220.328C784.943 219.771 784.835 219.183 784.835 218.562V218.228C784.835 217.53 784.932 216.886 785.125 216.294C785.318 215.696 785.605 215.175 785.986 214.729C786.367 214.284 786.845 213.938 787.419 213.692C787.993 213.44 788.661 213.314 789.423 213.314C790.097 213.314 790.7 213.423 791.233 213.64C791.767 213.856 792.218 214.167 792.587 214.571C792.962 214.976 793.246 215.465 793.439 216.039C793.639 216.613 793.738 217.258 793.738 217.973V219.177H785.969V217.322H790.847V217.094C790.853 216.777 790.797 216.508 790.68 216.285C790.568 216.062 790.404 215.893 790.188 215.775C789.971 215.658 789.707 215.6 789.396 215.6C789.074 215.6 788.808 215.67 788.597 215.811C788.392 215.951 788.23 216.145 788.113 216.391C788.002 216.631 787.923 216.909 787.876 217.226C787.829 217.542 787.806 217.876 787.806 218.228V218.562C787.806 218.913 787.853 219.232 787.946 219.52C788.046 219.807 788.187 220.053 788.368 220.258C788.556 220.457 788.778 220.612 789.036 220.724C789.3 220.835 789.599 220.891 789.933 220.891C790.337 220.891 790.735 220.814 791.128 220.662C791.521 220.51 791.857 220.258 792.139 219.906L793.483 221.506C793.29 221.781 793.015 222.048 792.657 222.306C792.306 222.563 791.884 222.774 791.392 222.938C790.899 223.097 790.349 223.176 789.739 223.176ZM799.926 220.328C799.926 220.164 799.87 220.023 799.759 219.906C799.653 219.783 799.466 219.672 799.196 219.572C798.927 219.467 798.549 219.361 798.062 219.256C797.6 219.156 797.163 219.024 796.753 218.86C796.349 218.696 795.994 218.497 795.689 218.263C795.385 218.028 795.145 217.75 794.969 217.428C794.799 217.105 794.714 216.736 794.714 216.32C794.714 215.916 794.799 215.535 794.969 215.178C795.145 214.814 795.399 214.495 795.733 214.22C796.073 213.938 796.486 213.719 796.973 213.561C797.459 213.396 798.013 213.314 798.634 213.314C799.489 213.314 800.228 213.446 800.849 213.71C801.47 213.968 801.947 214.331 802.281 214.8C802.621 215.263 802.791 215.799 802.791 216.408H799.829C799.829 216.168 799.788 215.963 799.706 215.793C799.63 215.623 799.504 215.494 799.328 215.406C799.152 215.312 798.918 215.266 798.625 215.266C798.42 215.266 798.232 215.304 798.062 215.38C797.898 215.456 797.767 215.562 797.667 215.696C797.567 215.831 797.518 215.989 797.518 216.171C797.518 216.3 797.547 216.417 797.605 216.522C797.67 216.622 797.767 216.716 797.896 216.804C798.024 216.886 798.188 216.962 798.388 217.032C798.587 217.097 798.827 217.155 799.108 217.208C799.747 217.325 800.345 217.492 800.901 217.709C801.458 217.926 801.909 218.233 802.255 218.632C802.606 219.03 802.782 219.566 802.782 220.24C802.782 220.662 802.686 221.052 802.492 221.409C802.299 221.761 802.021 222.071 801.657 222.341C801.294 222.604 800.857 222.81 800.348 222.956C799.838 223.103 799.264 223.176 798.625 223.176C797.717 223.176 796.949 223.015 796.322 222.692C795.695 222.364 795.221 221.954 794.898 221.462C794.582 220.964 794.424 220.46 794.424 219.95H797.184C797.195 220.243 797.266 220.483 797.395 220.671C797.529 220.858 797.708 220.996 797.931 221.084C798.153 221.172 798.411 221.216 798.704 221.216C798.974 221.216 799.196 221.178 799.372 221.102C799.554 221.025 799.691 220.923 799.785 220.794C799.879 220.659 799.926 220.504 799.926 220.328ZM808.188 220.891C808.463 220.891 808.697 220.841 808.891 220.741C809.09 220.636 809.239 220.489 809.339 220.302C809.444 220.108 809.494 219.877 809.488 219.607H812.274C812.28 220.322 812.104 220.949 811.747 221.488C811.396 222.021 810.915 222.438 810.306 222.736C809.702 223.029 809.02 223.176 808.258 223.176C807.514 223.176 806.863 223.056 806.307 222.815C805.75 222.569 805.284 222.229 804.909 221.796C804.54 221.356 804.262 220.844 804.074 220.258C803.893 219.672 803.802 219.036 803.802 218.351V218.148C803.802 217.463 803.893 216.827 804.074 216.241C804.262 215.649 804.54 215.137 804.909 214.703C805.284 214.264 805.747 213.924 806.298 213.684C806.854 213.438 807.502 213.314 808.24 213.314C809.031 213.314 809.729 213.464 810.332 213.763C810.941 214.062 811.419 214.495 811.765 215.063C812.11 215.632 812.28 216.32 812.274 217.129H809.488C809.494 216.842 809.45 216.584 809.356 216.355C809.263 216.127 809.116 215.945 808.917 215.811C808.724 215.67 808.475 215.6 808.17 215.6C807.865 215.6 807.619 215.667 807.432 215.802C807.244 215.937 807.101 216.124 807.001 216.364C806.907 216.599 806.843 216.868 806.808 217.173C806.778 217.478 806.764 217.803 806.764 218.148V218.351C806.764 218.702 806.778 219.033 806.808 219.344C806.843 219.648 806.91 219.918 807.01 220.152C807.109 220.381 807.253 220.562 807.44 220.697C807.628 220.826 807.877 220.891 808.188 220.891ZM816.528 215.846V223H813.566V213.49H816.335L816.528 215.846ZM819.341 213.42L819.288 216.171C819.171 216.159 819.013 216.145 818.813 216.127C818.614 216.109 818.447 216.101 818.312 216.101C817.967 216.101 817.668 216.142 817.416 216.224C817.17 216.3 816.965 216.417 816.801 216.575C816.643 216.728 816.525 216.921 816.449 217.155C816.379 217.39 816.347 217.662 816.353 217.973L815.816 217.621C815.816 216.982 815.878 216.402 816.001 215.881C816.13 215.354 816.312 214.899 816.546 214.519C816.78 214.132 817.064 213.836 817.398 213.631C817.732 213.42 818.107 213.314 818.523 213.314C818.67 213.314 818.813 213.323 818.954 213.341C819.101 213.358 819.229 213.385 819.341 213.42ZM823.489 213.49V223H820.519V213.49H823.489ZM820.343 211.038C820.343 210.616 820.495 210.271 820.8 210.001C821.104 209.731 821.5 209.597 821.986 209.597C822.473 209.597 822.868 209.731 823.173 210.001C823.478 210.271 823.63 210.616 823.63 211.038C823.63 211.46 823.478 211.806 823.173 212.075C822.868 212.345 822.473 212.479 821.986 212.479C821.5 212.479 821.104 212.345 820.8 212.075C820.495 211.806 820.343 211.46 820.343 211.038ZM828.306 215.318V226.656H825.344V213.49H828.104L828.306 215.318ZM834.142 218.131V218.315C834.142 219.007 834.062 219.648 833.904 220.24C833.746 220.832 833.512 221.348 833.201 221.787C832.891 222.227 832.504 222.569 832.041 222.815C831.584 223.056 831.054 223.176 830.45 223.176C829.882 223.176 829.393 223.05 828.982 222.798C828.572 222.546 828.229 222.197 827.954 221.752C827.679 221.307 827.456 220.797 827.286 220.223C827.116 219.648 826.981 219.042 826.882 218.403V218.166C826.981 217.48 827.116 216.845 827.286 216.259C827.456 215.667 827.679 215.151 827.954 214.712C828.229 214.272 828.569 213.93 828.974 213.684C829.384 213.438 829.873 213.314 830.441 213.314C831.045 213.314 831.575 213.429 832.032 213.657C832.495 213.886 832.882 214.214 833.192 214.642C833.509 215.063 833.746 215.57 833.904 216.162C834.062 216.754 834.142 217.41 834.142 218.131ZM831.18 218.315V218.131C831.18 217.762 831.153 217.425 831.101 217.12C831.048 216.81 830.963 216.54 830.846 216.312C830.734 216.083 830.585 215.907 830.397 215.784C830.21 215.661 829.979 215.6 829.703 215.6C829.387 215.6 829.12 215.649 828.903 215.749C828.692 215.843 828.522 215.989 828.394 216.188C828.271 216.382 828.183 216.625 828.13 216.918C828.083 217.205 828.062 217.542 828.068 217.929V218.649C828.057 219.095 828.101 219.487 828.2 219.827C828.3 220.161 828.473 220.422 828.719 220.609C828.965 220.797 829.299 220.891 829.721 220.891C830.002 220.891 830.236 220.826 830.424 220.697C830.611 220.562 830.761 220.378 830.872 220.144C830.983 219.903 831.062 219.628 831.109 219.317C831.156 219.007 831.18 218.673 831.18 218.315ZM840.47 213.49V215.547H834.739V213.49H840.47ZM835.943 211.126H838.905V219.897C838.905 220.149 838.935 220.346 838.993 220.486C839.052 220.621 839.151 220.718 839.292 220.776C839.438 220.829 839.632 220.855 839.872 220.855C840.042 220.855 840.183 220.853 840.294 220.847C840.405 220.835 840.511 220.82 840.61 220.803V222.921C840.358 223.003 840.095 223.064 839.819 223.105C839.544 223.152 839.251 223.176 838.94 223.176C838.308 223.176 837.766 223.076 837.314 222.877C836.869 222.678 836.529 222.364 836.295 221.937C836.061 221.509 835.943 220.952 835.943 220.267V211.126Z" fill="white"/>
<g clip-path="url(#clip0_3_3)">
<path d="M1392.7 -29.7H1036.3V326.7H1392.7V-29.7Z" fill="white"/>
<path d="M1363 0H1066V297H1363V0Z" fill="white"/>
<path d="M1232.76 225.5H1318.41C1360.87 225.5 1395.5 190.698 1395.5 147.917C1395.5 105.303 1360.87 70.5 1318.41 70.5H1232.76C1190.14 70.5 1155.5 105.299 1155.5 147.917C1155.5 190.702 1190.13 225.5 1232.76 225.5ZM1167.2 147.917C1167.2 111.748 1196.6 82.2363 1232.76 82.2363H1318.41C1354.4 82.2363 1383.8 111.744 1383.8 147.917C1383.8 184.26 1354.39 213.768 1318.41 213.768H1232.76C1196.6 213.768 1167.2 184.256 1167.2 147.917Z" fill="#A00119" stroke="#A00119" stroke-width="5"/>
<path d="M1232.61 200.5H1317.39C1345.54 200.5 1368.5 176.966 1368.5 148.002C1368.5 119.212 1345.55 95.5 1317.39 95.5H1232.61C1204.28 95.5 1181.5 119.218 1181.5 148.002C1181.5 176.96 1204.29 200.5 1232.61 200.5ZM1193.13 148.002C1193.13 125.589 1210.84 107.328 1232.61 107.328H1317.39C1339 107.328 1356.87 125.596 1356.87 148.002C1356.87 170.57 1339.01 188.676 1317.39 188.676H1232.61C1210.83 188.676 1193.13 170.576 1193.13 148.002Z" fill="#A00119" stroke="#A00119" stroke-width="5"/>
<path d="M1232.65 173.5H1318.35C1332.58 173.5 1344.5 162.135 1344.5 147.92C1344.5 133.854 1332.56 122.5 1318.35 122.5H1232.65C1218.26 122.5 1206.5 133.865 1206.5 147.92C1206.5 162.124 1218.24 173.5 1232.65 173.5ZM1218.21 147.92C1218.21 140.37 1224.56 134.05 1232.65 134.05H1318.35C1326.25 134.05 1332.62 140.354 1332.62 147.92C1332.62 155.666 1326.24 161.954 1318.35 161.954H1232.65C1224.58 161.954 1218.21 155.65 1218.21 147.92Z" fill="#A00119" stroke="#A00119" stroke-width="5"/>
<path d="M1275 67H1363V237H1275V67Z" fill="white"/>
</g>
<defs>
<clipPath id="clip0_3_3">
<path d="M1066 0H1348C1356.28 0 1363 6.71573 1363 15V282C1363 290.284 1356.28 297 1348 297H1066V0Z" fill="white"/>
</clipPath>
</defs>
</svg>
